<svg width="154" height="45" viewBox="0 0 154 45" fill="none" xmlns="http://www.w3.org/2000/svg">
<g clip-path="url(#clip0)">
<path d="M66.4122 12.5721C66.5344 12.5464 66.676 12.5271 66.8175 12.5271C66.9848 12.5271 67.1328 12.5528 67.2743 12.5721C67.3966 12.5979 67.5381 12.6172 67.7054 12.6172C67.7762 12.6172 67.8727 12.6172 67.9692 12.5914C68.04 12.5657 68.1365 12.5657 68.2073 12.5657C68.3488 12.5657 68.4968 12.5914 68.6384 12.6365C68.7606 12.6815 68.9021 12.733 69.0437 12.7587C69.211 12.7845 69.404 12.8038 69.597 12.8295C69.7643 12.8552 69.9573 12.9003 70.1246 12.926C70.2469 12.9517 70.3434 12.9968 70.4592 13.0225C70.5557 13.0676 70.6522 13.119 70.768 13.1448C70.8388 13.1705 70.9353 13.1898 71.0833 13.2155C71.2249 13.2413 71.3728 13.2863 71.4887 13.3121C71.6109 13.3571 71.7267 13.4086 71.849 13.4793C71.9455 13.5501 71.9905 13.6466 71.9905 13.7431C71.9905 13.8139 71.9648 13.9104 71.894 14.0584C71.8232 14.2257 71.7525 14.3737 71.6559 14.5152C71.5594 14.6825 71.4629 14.8048 71.3664 14.9206C71.2442 15.0428 71.1476 15.0879 71.0769 15.0879C71.0061 15.0879 70.9353 15.0621 70.8581 14.9914C70.7873 14.9463 70.7166 14.9206 70.6201 14.9206C70.5493 14.9206 70.4785 15.0171 70.4013 15.1844C70.3048 15.3774 70.2597 15.4996 70.2597 15.5704C70.189 15.6927 70.1375 15.8085 70.0925 15.9307C70.0474 16.053 69.9702 16.1945 69.8994 16.3168C69.6807 16.632 69.4941 16.9666 69.3011 17.2755C69.108 17.5843 68.8957 17.9253 68.677 18.2341C68.6062 18.3049 68.5547 18.4014 68.4839 18.4979C68.4132 18.6202 68.3617 18.7167 68.3617 18.8132C68.3617 18.884 68.4067 18.9805 68.5032 19.077C68.574 19.1735 68.6963 19.27 68.8185 19.3408C68.9408 19.4116 69.0373 19.4823 69.1531 19.5338C69.2753 19.6046 69.3461 19.6303 69.4169 19.6303C69.4877 19.7011 69.5842 19.7719 69.7064 19.8234C69.8029 19.8684 69.8994 19.9199 69.9702 19.9906C70.1375 20.1129 70.2855 20.2287 70.427 20.3509C70.5686 20.4732 70.7166 20.589 70.8838 20.7113C71.0061 20.8078 71.1219 20.9043 71.2442 20.9751C71.3664 21.0458 71.4629 21.1423 71.5787 21.2646C71.746 21.3354 71.9133 21.4319 72.0613 21.5799C72.2028 21.7214 72.3508 21.8694 72.4666 21.9852C72.6082 22.1525 72.7755 22.3005 72.9685 22.4163C73.1358 22.5578 73.2838 22.7316 73.3996 22.8988C73.4253 22.9439 73.4704 23.0404 73.5411 23.1884C73.6119 23.3299 73.7084 23.4779 73.7792 23.6195C73.85 23.7867 73.9207 23.9347 73.9979 24.0505C74.0687 24.1921 74.0945 24.2886 74.0945 24.3143C74.1202 24.3851 74.1202 24.4816 74.1202 24.5524C74.1202 24.6232 74.1202 24.7197 74.1202 24.7905V25.273C74.1202 25.3181 74.1202 25.3695 74.0945 25.3953C74.0687 25.421 74.0687 25.466 74.0687 25.4918C74.0687 25.5883 74.0945 25.6848 74.1202 25.7813C74.1459 25.8778 74.1459 25.9743 74.1459 26.0709C74.1459 26.1931 74.1202 26.2639 74.0494 26.2896C73.9786 26.3153 73.8564 26.3346 73.7341 26.3346C73.6634 26.3346 73.5669 26.3346 73.4961 26.3089C73.3996 26.3089 73.3031 26.3089 73.2323 26.3089C73.065 26.3089 72.8977 26.3346 72.7497 26.4054C72.5824 26.4762 72.4602 26.5277 72.3894 26.5277C72.2672 26.5277 72.2221 26.4312 72.1964 26.2381C72.1707 26.0709 72.1449 25.9229 72.1449 25.8521C72.1449 25.7813 72.1449 25.7556 72.1707 25.7298C72.1707 25.6848 72.1707 25.6333 72.1964 25.5883C72.2221 25.5626 72.2221 25.5175 72.2221 25.466C72.2221 25.4146 72.1964 25.2988 72.1514 25.1315C72.1063 24.9642 72.0549 24.7969 71.9841 24.6039C71.9133 24.4109 71.8618 24.2436 71.7911 24.0763C71.7203 23.909 71.6688 23.8125 71.6495 23.761C71.5273 23.5937 71.4114 23.4457 71.2442 23.3299C71.0769 23.2077 70.9289 23.0661 70.7616 22.9439C70.5686 22.8023 70.3305 22.5836 70.0152 22.3198C69.7 22.056 69.3654 21.7664 69.0308 21.5026C68.6705 21.2389 68.336 21.0201 67.9949 20.8078C67.6604 20.6147 67.3708 20.5182 67.1328 20.5182C67.0105 20.5182 66.8947 20.5633 66.8175 20.6405C66.7467 20.7113 66.6502 20.8078 66.5794 20.93C66.5087 21.0265 66.4122 21.1488 66.2449 21.3161C66.0776 21.4833 65.9103 21.6506 65.7173 21.8179C65.4985 21.9852 65.3119 22.1525 65.1382 22.3198C64.9452 22.4871 64.8036 22.6093 64.6814 22.6801C64.5591 22.7509 64.4433 22.8474 64.3211 22.9439C64.1988 23.0404 64.083 23.1369 63.9865 23.2334C63.9608 23.2785 63.9157 23.3299 63.89 23.375C63.8385 23.42 63.7935 23.4715 63.7227 23.4972C63.6005 23.568 63.4847 23.6195 63.3624 23.6388C63.2402 23.6838 63.1436 23.761 63.0278 23.8318C62.8605 23.954 62.7126 24.0698 62.5967 24.1921C62.4745 24.3143 62.333 24.4302 62.1657 24.5267C62.0949 24.5717 62.0241 24.6232 61.9469 24.6489C61.8761 24.6747 61.7796 24.7197 61.7088 24.7454C61.5866 24.8162 61.4708 24.887 61.3485 24.9642C61.2263 25.035 61.0847 25.0864 60.9625 25.1572C60.8917 25.1829 60.8209 25.2022 60.7437 25.228C60.673 25.2537 60.6022 25.2988 60.525 25.3245C60.4992 25.3245 60.4285 25.3502 60.3577 25.3695C60.2869 25.4146 60.1904 25.466 60.1196 25.5111C60.0489 25.5819 59.9523 25.6333 59.8816 25.6784C59.8108 25.7491 59.74 25.7749 59.6885 25.8006C59.2832 26.0387 58.8714 26.2317 58.4403 26.354C58.0092 26.4762 57.5782 26.6177 57.1213 26.74C56.9541 26.785 56.7868 26.8622 56.6195 26.9588C56.4265 27.081 56.2592 27.126 56.0919 27.126C55.9246 27.126 55.8024 27.0295 55.7316 26.8622C55.6608 26.74 55.5643 26.547 55.442 26.3089C55.3198 26.0902 55.249 25.9036 55.249 25.7556C55.249 25.6591 55.2941 25.5883 55.3906 25.5175C55.4871 25.4467 55.6093 25.3953 55.7251 25.3502C55.841 25.3052 55.9632 25.2537 56.0855 25.228C56.2077 25.2022 56.3235 25.1572 56.4007 25.1315C56.4715 25.1057 56.5423 25.0864 56.6195 25.0864C56.6903 25.1122 56.761 25.0864 56.8382 25.0607C56.864 25.035 56.9348 25.0157 57.0313 24.9642C57.102 24.9191 57.1986 24.8677 57.2951 24.8226C57.3658 24.7776 57.4623 24.7261 57.5331 24.6811C57.6039 24.6361 57.6296 24.6103 57.6554 24.5846C57.7776 24.5138 57.8934 24.4623 58.0157 24.443C58.1379 24.4173 58.2795 24.398 58.4017 24.3723C58.4725 24.3465 58.569 24.3015 58.6398 24.2757C58.7106 24.25 58.7813 24.205 58.8585 24.1792C59.1223 24.057 59.3861 23.9154 59.6306 23.7481C59.8687 23.6066 60.1325 23.4586 60.4027 23.3428C60.525 23.272 60.6665 23.1755 60.7888 23.1047C60.911 23.034 61.0526 22.9375 61.1748 22.8667C61.2456 22.8409 61.3164 22.7959 61.3678 22.7444C61.3936 22.6994 61.4386 22.6479 61.5094 22.6029C61.6316 22.5064 61.7732 22.4356 61.9147 22.3648C62.037 22.294 62.1785 22.2426 62.3201 22.1718C62.3909 22.1461 62.4423 22.101 62.4874 22.0495C62.5324 21.9981 62.5839 21.953 62.6289 21.9273C62.674 21.8823 62.7254 21.8308 62.7962 21.8051C62.8477 21.7793 62.8927 21.76 62.9635 21.7343C63.0343 21.7085 63.0857 21.6635 63.1308 21.612C63.1565 21.567 63.2015 21.5155 63.2723 21.4898C63.3946 21.419 63.4653 21.3225 63.5361 21.226C63.5812 21.1295 63.6584 21.033 63.7291 20.9622C63.8964 20.7692 64.0895 20.6019 64.3082 20.4603C64.5012 20.3188 64.6943 20.1451 64.8615 19.9585C64.9323 19.8877 65.0031 19.7912 65.0803 19.6689C65.1511 19.5724 65.2219 19.4759 65.2991 19.4051C65.4213 19.2829 65.5371 19.1671 65.6594 19.0706C65.7816 18.9998 65.8974 18.8775 65.9939 18.7553C66.0647 18.633 66.1355 18.5365 66.2127 18.44C66.2835 18.3435 66.335 18.247 66.4057 18.1248C66.4508 18.054 66.528 17.9832 66.5987 17.9317C66.6695 17.8867 66.721 17.8095 66.766 17.7387C66.8883 17.5714 66.9848 17.4041 67.0749 17.2111C67.1456 17.0438 67.2679 16.8765 67.3901 16.7093C67.4609 16.587 67.5832 16.4455 67.7247 16.2267C67.847 16.0337 67.9885 15.8214 68.1108 15.5769C68.233 15.3581 68.3488 15.1458 68.4453 14.927C68.5161 14.7083 68.5676 14.541 68.5676 14.3994C68.5676 14.3286 68.5418 14.3029 68.4711 14.3029C68.4453 14.3286 68.3746 14.3286 68.278 14.3286C68.1815 14.3286 68.085 14.3286 68.0142 14.3029C67.9177 14.2772 67.8212 14.2772 67.7247 14.2772C67.699 14.2514 67.6282 14.2514 67.5317 14.2514C67.4094 14.2514 67.2679 14.2514 67.1456 14.2772C67.0234 14.3029 66.8818 14.3029 66.7596 14.3029C66.5215 14.3029 66.277 14.3029 66.039 14.3029C65.7752 14.3286 65.5371 14.3286 65.2926 14.3286C64.6428 14.3286 63.9929 14.3286 63.3431 14.3029C62.6933 14.3029 62.0434 14.3029 61.4 14.3029C61.3292 14.3029 61.2327 14.3029 61.1619 14.3286C61.0912 14.3544 60.9947 14.3737 60.9239 14.3737C60.7823 14.3737 60.6343 14.3479 60.5185 14.3286C60.377 14.3029 60.229 14.3029 60.0875 14.3029C60.0167 14.3029 59.9202 14.3029 59.8494 14.3286C59.7786 14.3544 59.6821 14.3544 59.6113 14.3544C59.5856 14.3544 59.5148 14.3544 59.444 14.3544C59.3475 14.3801 59.2768 14.3544 59.251 14.3286C59.0323 14.3286 58.9165 14.2321 58.9165 14.0648C58.9165 13.9941 58.9165 13.9233 58.9422 13.8461C58.9679 13.7753 58.9679 13.7045 58.9679 13.6273V13.0483C58.9679 12.881 59.0387 12.7587 59.1609 12.688C59.2832 12.6429 59.399 12.6172 59.5663 12.6172H60.673C60.7695 12.6172 60.866 12.6429 60.9368 12.6622C61.0075 12.688 61.104 12.7073 61.2006 12.7073C61.3228 12.7073 61.4643 12.7073 61.5866 12.6815C61.7088 12.6558 61.8247 12.6558 61.9469 12.6558C62.1657 12.6558 62.4037 12.6558 62.6418 12.6558C62.8798 12.6558 63.1243 12.63 63.3367 12.6107C63.5554 12.5657 63.7677 12.54 63.9865 12.54C64.1538 12.54 64.3018 12.5657 64.4691 12.585C64.6106 12.6107 64.7586 12.63 64.9259 12.63H66.0068C66.1484 12.6429 66.2963 12.6172 66.4122 12.5721Z" fill="white"/>
<path d="M94.5482 12.6687C94.5739 12.6944 94.619 12.7137 94.6897 12.7137C94.857 12.7137 95.005 12.7137 95.1466 12.688C95.2881 12.6622 95.4361 12.6622 95.6034 12.6622C95.7964 12.6622 95.9894 12.688 96.2018 12.7073C96.3948 12.733 96.5878 12.7523 96.7808 12.7523C96.9224 12.7523 97.0961 12.7523 97.2634 12.7523C97.4307 12.778 97.5979 12.7973 97.7459 12.8231C97.8682 12.8488 98.0612 12.8939 98.2735 12.9646C98.4923 13.0354 98.6789 13.1062 98.8976 13.2027C99.1164 13.2992 99.2837 13.4215 99.451 13.5373C99.5925 13.6595 99.6697 13.8011 99.6697 13.9426C99.6697 14.0134 99.644 14.0842 99.5989 14.2064C99.5475 14.3287 99.5024 14.4252 99.4317 14.541C99.3609 14.6632 99.2644 14.7597 99.1936 14.8305C99.0971 14.9013 99.0263 14.9528 98.9555 14.9528C98.8848 14.9528 98.8333 14.927 98.814 14.882C98.7947 14.8369 98.7175 14.8112 98.6467 14.8112C98.621 14.8112 98.6017 14.8112 98.6017 14.8112C98.5759 14.837 98.5759 14.8369 98.5502 14.8369C98.5245 14.8627 98.4794 14.9335 98.4086 15.0557C98.3379 15.178 98.2671 15.3195 98.1899 15.4611C98.1191 15.6283 98.0483 15.7763 97.9711 15.8921C97.9004 16.0337 97.8746 16.1109 97.8746 16.1302C97.8746 16.1559 97.8746 16.1752 97.8746 16.201C97.8489 16.2267 97.8489 16.2718 97.8489 16.2975C97.8231 16.3232 97.8231 16.3683 97.8231 16.439C97.7974 16.5806 97.7781 16.7286 97.7009 16.8701C97.6301 17.0374 97.5593 17.1854 97.4821 17.3012C97.4371 17.372 97.3856 17.4428 97.3599 17.52C97.3084 17.5907 97.2634 17.6615 97.2183 17.7387C97.1476 17.8095 97.0961 17.8803 97.0253 17.906C96.9545 17.9317 96.8838 18.0025 96.858 18.0733C96.7615 18.2921 96.6907 18.5044 96.62 18.7231C96.5492 18.9419 96.4527 19.1542 96.3047 19.3472C96.0859 19.6625 95.8479 19.9714 95.6098 20.2866C95.346 20.6019 95.0822 20.885 94.8184 21.1488C94.6962 21.271 94.5804 21.4383 94.4581 21.6056C94.3359 21.7729 94.2201 21.9402 94.0721 22.0624C93.9048 22.2297 93.7375 22.3777 93.5702 22.4935C93.4029 22.6351 93.2099 22.783 93.0426 22.9246C92.8239 23.0919 92.6566 23.2849 92.4893 23.4779C92.322 23.671 92.1032 23.8382 91.8909 23.9798C91.7944 24.0506 91.6979 24.1213 91.5756 24.1728C91.4534 24.2178 91.3569 24.2951 91.2604 24.3658C91.1381 24.4366 91.0223 24.5331 90.9258 24.6554C90.8036 24.7776 90.6877 24.8741 90.5655 24.9449C90.469 25.0157 90.3725 25.0671 90.2502 25.1122C90.128 25.1572 90.0315 25.2087 89.9349 25.2795C89.7677 25.376 89.6197 25.4725 89.5039 25.569C89.3623 25.6913 89.2143 25.7878 89.047 25.8585C88.9763 25.8843 88.9248 25.9293 88.9055 25.9808C88.8605 26.0258 88.809 26.0773 88.7382 26.103C88.5709 26.2253 88.4036 26.2961 88.2106 26.3218C87.9919 26.3475 87.8246 26.4183 87.6573 26.5406C87.5865 26.5856 87.5157 26.6371 87.4643 26.6821C87.3935 26.7529 87.3227 26.8043 87.2455 26.8494C86.8595 27.0681 86.4541 27.2547 86.0423 27.377C85.9201 27.4027 85.8236 27.4478 85.7271 27.5185C85.6306 27.5893 85.534 27.6408 85.4375 27.6858C85.341 27.7309 85.2445 27.7566 85.148 27.7823C85.0257 27.8081 84.9292 27.8274 84.8327 27.8788C84.614 28.0011 84.3502 28.1169 84.0606 28.2392C83.7454 28.3614 83.4816 28.4064 83.2178 28.4064C83.0505 28.4064 82.9025 28.3807 82.8124 28.3099C82.6902 28.2392 82.6194 28.1684 82.5486 28.0461C82.4778 27.9239 82.4071 27.8081 82.3556 27.6858C82.3106 27.5636 82.2591 27.422 82.1883 27.2998C82.1626 27.229 82.1368 27.1775 82.1175 27.1325C82.0982 27.0874 82.0918 27.036 82.0918 26.9652C82.0918 26.7979 82.1883 26.7014 82.4071 26.6306C82.6258 26.5599 82.7674 26.5084 82.8639 26.4633C83.2242 26.4633 83.5845 26.3668 83.9448 26.1481C84.3051 25.9293 84.6397 25.762 84.955 25.6205C85.1737 25.524 85.4375 25.4275 85.7464 25.3309C86.0359 25.2344 86.274 25.1379 86.4412 25.0414C86.705 24.8999 86.9688 24.7519 87.2326 24.6361C87.4964 24.5138 87.786 24.4173 88.0498 24.3015C88.172 24.2565 88.2878 24.1792 88.365 24.1085C88.4358 24.0377 88.5323 23.9862 88.6546 23.9154C88.8218 23.8189 88.9891 23.7224 89.1564 23.6259C89.3237 23.5551 89.4717 23.4329 89.639 23.3106C89.7805 23.1884 89.9285 23.0726 90.0443 22.9503C90.1666 22.8281 90.3339 22.7316 90.5012 22.6608C90.5719 22.6608 90.6942 22.5643 90.8357 22.397C90.958 22.2297 91.0738 22.1332 91.1703 22.1075C91.2153 22.0624 91.2925 22.011 91.3633 21.9852C91.4341 21.9595 91.4856 21.9144 91.5563 21.863C91.6786 21.7665 91.7751 21.67 91.8716 21.5477C91.9424 21.4255 92.0389 21.3289 92.1354 21.2324C92.2577 21.1102 92.4249 20.9686 92.6373 20.7499C92.8496 20.5311 93.0684 20.3188 93.2871 20.0743C93.5059 19.8555 93.6925 19.6175 93.8855 19.3987C94.0528 19.18 94.175 19.0127 94.2201 18.8969C94.2715 18.7746 94.3616 18.6331 94.5353 18.4658C94.7026 18.3242 94.8249 18.1762 94.8956 18.0604C95.0372 17.8224 95.1594 17.5586 95.2302 17.2948C95.301 17.031 95.4232 16.7672 95.5455 16.5034C95.642 16.2846 95.7385 16.1173 95.835 15.9758C95.9058 15.8535 95.9766 15.712 96.0538 15.5897C96.1052 15.4675 96.1503 15.3002 96.176 15.1329C96.2017 14.9656 96.2275 14.7726 96.2275 14.5088C96.2275 14.3866 96.2017 14.3158 96.1567 14.2901C96.0859 14.2643 96.0152 14.2643 95.938 14.2643C95.7707 14.2643 95.6227 14.2643 95.4811 14.2901C95.3138 14.3158 95.1659 14.3351 94.9986 14.3351C94.6383 14.3351 94.278 14.3094 93.9177 14.2901C93.5573 14.2643 93.2228 14.245 92.8625 14.245C92.7917 14.245 92.7209 14.245 92.5987 14.245C92.4764 14.245 92.3799 14.245 92.2641 14.245C92.1418 14.2708 92.026 14.2708 91.9295 14.2708C91.833 14.2965 91.7622 14.2965 91.7108 14.3158C91.64 14.3415 91.5885 14.3866 91.5692 14.438C91.5242 14.4831 91.4727 14.5345 91.4277 14.5796C91.3054 14.7018 91.2346 14.8176 91.1896 14.9399C91.1188 15.0621 91.048 15.1587 90.9708 15.2552C90.9001 15.3517 90.8035 15.4482 90.707 15.519C90.5848 15.5897 90.4883 15.6862 90.3918 15.7828C90.1988 16.0015 90.0057 16.1881 89.8384 16.3811C89.6454 16.5999 89.4524 16.7865 89.2594 16.9795C89.1371 17.1017 88.9956 17.1983 88.8283 17.269C88.661 17.3398 88.513 17.4363 88.3972 17.5586C88.2299 17.7259 88.0112 17.9446 87.7474 18.1569C87.4836 18.3693 87.2198 18.5623 86.9817 18.6845C86.9109 18.7103 86.8595 18.7553 86.8144 18.781C86.7436 18.8068 86.6922 18.8518 86.6214 18.9033C86.5249 18.9741 86.4541 18.9998 86.4026 19.0255C86.1646 19.0963 85.9201 19.2186 85.682 19.3408C85.4182 19.4824 85.1802 19.6303 84.9614 19.7719C84.8906 19.8169 84.7941 19.8427 84.7233 19.8684C84.6526 19.8941 84.5561 19.9392 84.4853 19.9907C84.363 20.0614 84.2215 20.1579 84.0992 20.2544C83.9577 20.3767 83.8097 20.4217 83.6939 20.4217C83.5716 20.4217 83.4558 20.3767 83.3593 20.2802C83.2371 20.2094 83.1406 20.0872 83.0698 19.9649C82.999 19.8427 82.9282 19.7011 82.8768 19.5596C82.8253 19.418 82.806 19.2958 82.806 19.1993C82.806 19.077 82.8575 18.9805 82.9282 18.9097C82.999 18.839 83.0698 18.7875 83.192 18.7167C83.2628 18.6717 83.3593 18.6202 83.4558 18.5752C83.5266 18.5494 83.6231 18.5044 83.6939 18.4786C83.7904 18.4529 83.8869 18.3821 83.9577 18.3114C84.0285 18.2406 84.0992 18.1891 84.1957 18.1698C84.363 18.099 84.511 18.0476 84.6268 17.9768C84.7491 17.9317 84.8906 17.8545 85.0386 17.7838C85.1609 17.713 85.2767 17.6165 85.3732 17.52C85.4697 17.4492 85.5919 17.3527 85.7078 17.2819C85.9265 17.1404 86.2096 16.9666 86.5249 16.7993C86.8402 16.6321 87.0782 16.439 87.2455 16.2718C87.535 15.9822 87.8439 15.6927 88.1591 15.4289C88.3264 15.2616 88.4937 15.0943 88.6417 14.927C88.7639 14.7597 88.9055 14.5667 89.0728 14.3994C89.3623 14.0649 89.6004 13.7753 89.7677 13.5373C89.935 13.3185 90.1022 13.0804 90.2502 12.8424C90.3725 12.6236 90.4883 12.3598 90.6105 12.0767C90.707 11.8129 90.8293 11.4526 90.9708 11.0408C90.9966 10.9186 91.0416 10.777 91.0931 10.6548C91.1381 10.5325 91.1639 10.4167 91.1639 10.2945C91.1639 10.2237 91.1639 10.1272 91.1639 10.0564C91.1381 9.98565 91.1381 9.88914 91.1381 9.81836C91.1381 9.69612 91.1639 9.55457 91.1896 9.43232C91.2153 9.31007 91.3118 9.26503 91.4791 9.26503C91.5306 9.23929 91.6014 9.21999 91.6979 9.21999C91.7687 9.24573 91.8394 9.24573 91.8909 9.24573C92.0132 9.24573 92.1804 9.27147 92.4442 9.29077C92.6823 9.3165 92.8496 9.38728 92.9268 9.45805C92.9783 9.50309 92.9976 9.5803 93.0233 9.65108C93.0233 9.74759 93.0233 9.81836 93.0233 9.88914C93.0233 10.2494 92.9783 10.6355 92.9011 10.9958C92.8046 11.3561 92.7595 11.7422 92.7595 12.1025C92.7595 12.3212 92.8045 12.4628 92.9268 12.5078C93.049 12.5786 93.1906 12.6043 93.3836 12.6043H94.368C94.4388 12.6043 94.4645 12.6043 94.4903 12.6301L94.5482 12.6687ZM98.7303 11.517C98.7046 11.5877 98.6596 11.6392 98.5888 11.6585C98.518 11.6842 98.4472 11.7035 98.3507 11.6842C98.2542 11.6585 98.132 11.6585 97.9904 11.6585H97.7266C97.6816 11.6585 97.6559 11.6585 97.6301 11.6842C97.6044 11.6842 97.5593 11.6842 97.5336 11.71C97.5079 11.7357 97.4628 11.7357 97.4371 11.7357C97.3663 11.7357 97.3406 11.71 97.3406 11.6649C97.3406 11.4977 97.3406 11.3046 97.3148 11.1374C97.2891 10.9701 97.2698 10.8028 97.2698 10.6355C97.2698 10.5132 97.2698 10.3717 97.2698 10.2494C97.2441 10.1272 97.2698 9.98565 97.2955 9.8634C97.3213 9.76689 97.347 9.69612 97.347 9.62534C97.3728 9.5996 97.3728 9.52883 97.3728 9.45805V8.6924C97.3728 8.59589 97.3728 8.49938 97.347 8.37713C97.3213 8.28062 97.3213 8.1841 97.3213 8.06186C97.3213 8.01682 97.3213 7.93961 97.347 7.8431C97.3728 7.77232 97.3921 7.72085 97.4693 7.72085C97.5658 7.72085 97.6623 7.74659 97.7331 7.79163H98.0676C98.1384 7.79163 98.2092 7.79163 98.2864 7.76589C98.3572 7.74015 98.4279 7.74015 98.5052 7.74015C98.6274 7.74015 98.6982 7.78519 98.6982 7.90744V7.97821C98.6467 8.04899 98.6274 8.1455 98.6274 8.21628C98.6274 8.31279 98.6274 8.4093 98.6274 8.48007C98.6274 8.57658 98.6531 8.69883 98.6724 8.81465C98.6982 8.9562 98.7239 9.10418 98.7239 9.24573C98.7239 9.46449 98.7239 9.65108 98.6982 9.8441C98.6724 10.0371 98.6724 10.2301 98.6724 10.4425C98.6724 10.5647 98.6982 10.6805 98.7239 10.777C98.7496 10.8736 98.7689 10.9958 98.7689 11.1116C98.7561 11.2982 98.7561 11.4398 98.7303 11.517ZM101.446 11.6135C101.253 11.6842 101.014 11.7357 100.725 11.7357C100.583 11.7357 100.461 11.71 100.39 11.6649C100.32 11.6392 100.268 11.5234 100.268 11.3497C100.268 11.2532 100.268 11.1567 100.294 11.0344C100.294 10.9379 100.294 10.8414 100.294 10.7449C100.294 10.6226 100.268 10.5068 100.249 10.3846C100.223 10.2623 100.197 10.1465 100.197 10.0243C100.197 9.76046 100.223 9.47092 100.268 9.20712C100.294 9.0141 100.32 8.82108 100.339 8.62806C100.339 8.43503 100.339 8.24201 100.339 8.04899C100.339 7.92674 100.339 7.85597 100.365 7.81093C100.39 7.78519 100.416 7.76589 100.461 7.74015C100.487 7.71442 100.532 7.71442 100.558 7.71442H100.847C100.969 7.71442 101.111 7.71442 101.253 7.71442C101.375 7.74015 101.516 7.74015 101.639 7.74015C101.639 7.81093 101.639 7.8624 101.613 7.90744C101.587 7.95248 101.568 8.02969 101.568 8.10046C101.568 8.22271 101.594 8.33852 101.613 8.46077C101.639 8.58302 101.664 8.69883 101.664 8.82108C101.664 8.91759 101.664 9.0141 101.664 9.11061C101.639 9.20712 101.639 9.30364 101.639 9.40015C101.639 9.52239 101.639 9.66394 101.664 9.80549C101.69 9.94704 101.69 10.095 101.69 10.2108C101.69 10.2816 101.69 10.3781 101.664 10.4489C101.639 10.5197 101.639 10.6162 101.639 10.687C101.639 10.7577 101.664 10.8092 101.684 10.8543C101.703 10.8993 101.709 10.9508 101.709 11.0215C101.709 11.3432 101.613 11.5363 101.446 11.6135Z" fill="white"/>
<path d="M110.506 27.1518C110.506 27.0102 110.506 26.8623 110.506 26.695C110.506 26.6242 110.506 26.5534 110.531 26.4762C110.557 26.4312 110.557 26.354 110.557 26.2832V21.5734C110.557 21.5284 110.557 21.4769 110.531 21.4319C110.506 21.3869 110.506 21.3354 110.506 21.2903C110.506 20.9043 110.506 20.5247 110.531 20.1129C110.557 19.7269 110.557 19.3472 110.557 18.9612C110.557 18.8647 110.557 18.7682 110.531 18.6717C110.506 18.6009 110.486 18.5044 110.486 18.4336C110.486 18.1441 110.512 17.8545 110.531 17.5714C110.551 17.2883 110.557 16.9924 110.557 16.7093C110.557 16.6835 110.557 16.6128 110.557 16.4905C110.531 16.394 110.531 16.2975 110.531 16.1752C110.506 16.0787 110.506 15.9822 110.486 15.9114C110.461 15.8407 110.416 15.7892 110.39 15.7892C110.338 15.7892 110.293 15.8149 110.268 15.8342C110.1 15.9565 109.907 16.053 109.74 16.1688C109.547 16.2911 109.354 16.4069 109.187 16.5291C108.923 16.6964 108.633 16.8637 108.344 17.0117C108.054 17.1597 107.765 17.3012 107.482 17.4428C107.437 17.4685 107.385 17.5135 107.34 17.565C107.269 17.61 107.218 17.6358 107.147 17.6358C107.076 17.6358 107.006 17.565 106.883 17.4428C106.761 17.3205 106.665 17.2047 106.568 17.0374C106.446 16.8701 106.349 16.7221 106.278 16.5549C106.208 16.3876 106.156 16.2911 106.156 16.2203C106.156 16.1238 106.208 16.053 106.298 16.0015C106.343 15.9758 106.42 15.9565 106.517 15.8793C106.613 15.8342 106.71 15.7828 106.832 15.712C106.954 15.6669 107.051 15.6155 107.147 15.5704C107.244 15.5447 107.314 15.5254 107.366 15.5254C107.437 15.4997 107.507 15.4546 107.585 15.3838C107.655 15.3131 107.752 15.2616 107.874 15.2423C107.945 15.2166 108.016 15.1715 108.093 15.1007C108.164 15.0557 108.234 15.0042 108.312 14.9785C108.434 14.9335 108.55 14.882 108.646 14.8112C108.717 14.7404 108.814 14.6697 108.936 14.5925C108.987 14.5667 109.032 14.5217 109.103 14.4959C109.155 14.4702 109.2 14.4252 109.245 14.3994C109.508 14.2321 109.798 14.0649 110.062 13.8718C110.326 13.6788 110.615 13.4858 110.879 13.3185C111.194 13.0997 111.529 12.8359 111.863 12.5271C112.179 12.2118 112.487 11.9287 112.751 11.6649C112.796 11.5942 112.893 11.4977 113.041 11.3754C113.182 11.2532 113.279 11.1567 113.305 11.1374C113.375 11.0923 113.472 11.0151 113.568 10.8993C113.639 10.8028 113.71 10.7063 113.761 10.6355C113.787 10.6098 113.787 10.5905 113.806 10.5647C113.832 10.5647 113.851 10.539 113.877 10.5197C113.974 10.4489 114.07 10.3267 114.141 10.1851C114.212 10.0629 114.308 9.94705 114.379 9.85053C114.45 9.72829 114.546 9.63178 114.669 9.53526C114.765 9.46449 114.862 9.34224 114.932 9.21999C115.003 9.12348 115.1 8.98193 115.222 8.76317C115.344 8.54441 115.441 8.40286 115.46 8.33209C115.601 8.19054 115.698 8.09403 115.749 8.01682C115.775 7.94604 115.917 7.92031 116.136 7.92031C116.206 7.92031 116.258 7.92031 116.303 7.89457C116.425 7.89457 116.567 7.89457 116.708 7.86884C116.85 7.86884 116.998 7.86884 117.139 7.86884C117.261 7.86884 117.403 7.86884 117.57 7.89457C117.738 7.92031 117.86 7.99108 117.931 8.06186C118.001 8.13263 118.072 8.22914 118.149 8.32566C118.22 8.4479 118.291 8.54441 118.368 8.61519C118.465 8.7117 118.561 8.80821 118.632 8.90472C118.703 9.00124 118.799 9.09775 118.896 9.19426C119.301 9.65108 119.758 10.1336 120.24 10.5905C120.723 11.0473 121.225 11.4526 121.727 11.8129C121.798 11.858 121.894 11.9352 121.991 12.006C122.061 12.1025 122.132 12.1732 122.209 12.199C122.235 12.244 122.306 12.2955 122.402 12.3405C122.499 12.4113 122.57 12.4628 122.64 12.4821C122.904 12.6751 123.194 12.8681 123.458 13.0804C123.721 13.2992 124.011 13.4408 124.32 13.563C124.442 13.608 124.583 13.6852 124.706 13.7818C124.828 13.904 124.944 13.9748 125.092 14.0456C125.285 14.1421 125.478 14.2386 125.69 14.3094C125.909 14.3801 126.095 14.5024 126.269 14.6246C126.533 14.7919 126.823 14.9399 127.112 15.0107C127.402 15.1072 127.665 15.2487 127.929 15.416C127.974 15.4418 128 15.4868 128.026 15.5576C128.051 15.6283 128.051 15.6798 128.051 15.7249C128.051 15.7956 128.026 15.8921 127.981 15.9887C127.936 16.0852 127.884 16.1817 127.813 16.2782C127.743 16.4004 127.672 16.4969 127.595 16.5677C127.524 16.6642 127.453 16.735 127.427 16.8058C127.331 16.9473 127.189 17.0245 127.022 17.0245C126.925 17.0245 126.707 16.928 126.346 16.7607C125.986 16.5935 125.6 16.3747 125.195 16.1624C124.789 15.95 124.403 15.7313 124.043 15.5125C123.683 15.2938 123.445 15.178 123.348 15.1265C123.322 15.223 123.303 15.3195 123.303 15.3903C123.303 15.609 123.329 15.8471 123.348 16.0659C123.374 16.2846 123.374 16.5227 123.374 16.7414C123.374 16.8122 123.374 16.8637 123.348 16.9087C123.322 16.9795 123.303 17.0503 123.303 17.1275C123.303 17.3462 123.329 17.5843 123.348 17.8224C123.374 18.0604 123.374 18.3049 123.374 18.5172C123.374 18.543 123.374 18.5623 123.374 18.588C123.348 18.6138 123.348 18.6588 123.329 18.6845C123.303 18.7553 123.277 18.9033 123.303 19.1156C123.303 19.3344 123.303 19.5017 123.303 19.6175C123.303 19.7848 123.303 19.9327 123.329 20.0743C123.355 20.2416 123.355 20.3896 123.355 20.5569C123.355 20.7241 123.355 20.8914 123.329 21.0394C123.303 21.2067 123.303 21.374 123.303 21.5413C123.303 21.612 123.303 21.7086 123.303 21.8308C123.303 21.953 123.329 22.0496 123.374 22.0946C123.4 22.0946 123.47 22.0496 123.541 21.9724C123.612 21.9016 123.708 21.8308 123.805 21.7343C123.901 21.6378 123.998 21.5413 124.094 21.4448C124.191 21.374 124.262 21.3032 124.333 21.2775C124.403 21.2775 124.5 21.3225 124.667 21.3997C124.809 21.4962 124.957 21.6185 125.124 21.7343C125.291 21.8565 125.439 21.9981 125.555 22.1203C125.677 22.2426 125.722 22.3391 125.722 22.4099C125.722 22.4806 125.697 22.5514 125.626 22.5772C125.555 22.6222 125.504 22.6737 125.459 22.6994C125.24 22.8924 124.976 23.1048 124.686 23.375C124.397 23.6452 124.133 23.8318 123.869 23.9734C123.676 24.0956 123.483 24.2114 123.29 24.3337C123.071 24.4752 122.904 24.6232 122.737 24.7647C122.615 24.9063 122.422 25.0285 122.184 25.1508C121.92 25.273 121.701 25.4146 121.534 25.5368C121.508 25.5626 121.463 25.5819 121.437 25.6076C121.386 25.6333 121.366 25.6526 121.366 25.7041C121.366 25.8264 121.534 25.9422 121.868 26.1095C122.184 26.2768 122.563 26.4247 122.994 26.592C123.4 26.7593 123.811 26.9073 124.217 27.0231C124.603 27.1647 124.867 27.2612 124.982 27.3126C125.105 27.3834 125.272 27.4092 125.439 27.3834C125.606 27.3834 125.754 27.4092 125.896 27.4799C125.967 27.5057 126.089 27.525 126.256 27.5507C126.424 27.5764 126.572 27.6215 126.739 27.6472C126.906 27.673 127.054 27.718 127.17 27.7437C127.292 27.7888 127.363 27.8402 127.363 27.911C127.363 27.9818 127.318 28.1298 127.221 28.2971C127.125 28.4643 127.028 28.6316 126.906 28.8247C126.784 28.9919 126.642 29.1592 126.52 29.3072C126.379 29.4295 126.282 29.5002 126.205 29.5002C126.16 29.5002 126.108 29.5002 126.063 29.5002C126.012 29.4745 125.967 29.5002 125.941 29.526C125.774 29.4552 125.581 29.3844 125.388 29.3072C125.195 29.2364 125.002 29.185 124.834 29.1399C124.783 29.1142 124.738 29.1142 124.693 29.1142C124.622 29.1142 124.571 29.0885 124.551 29.0691C124.429 29.0691 124.288 29.0434 124.12 28.9726C123.953 28.9019 123.786 28.8311 123.663 28.8054C123.4 28.7346 123.136 28.6381 122.898 28.5416C122.66 28.445 122.396 28.3485 122.126 28.2263C122.055 28.1812 121.958 28.1298 121.862 28.0847C121.765 28.014 121.669 27.9625 121.572 27.9174C121.431 27.8467 121.283 27.7759 121.115 27.6987C120.948 27.6279 120.8 27.5571 120.684 27.4799C120.466 27.3577 120.279 27.2161 120.086 27.0746C119.893 26.9523 119.7 26.8108 119.488 26.6885C119.32 26.5663 119.082 26.3733 118.812 26.1095C118.523 25.8457 118.285 25.6527 118.117 25.5111C117.757 25.1765 117.397 24.8162 117.062 24.4559C116.94 24.3337 116.843 24.1664 116.747 23.9991C116.625 23.761 116.457 23.4972 116.29 23.2334C116.123 22.9696 115.93 22.7509 115.762 22.5386C115.737 22.5128 115.737 22.4935 115.717 22.4678C115.692 22.442 115.647 22.442 115.621 22.442C115.286 22.442 114.945 22.442 114.636 22.4678C114.302 22.4935 113.967 22.4935 113.626 22.4935C113.459 22.4935 113.292 22.4935 113.124 22.4678C112.957 22.442 112.764 22.442 112.597 22.442C112.475 22.442 112.378 22.4678 112.359 22.5128C112.307 22.5579 112.288 22.6544 112.288 22.7766C112.288 22.8989 112.288 22.9954 112.314 23.0919C112.339 23.2141 112.339 23.3106 112.339 23.4265C112.339 23.4972 112.339 23.568 112.314 23.6452C112.288 23.716 112.288 23.7868 112.288 23.864C112.288 24.0313 112.288 24.2243 112.314 24.3916C112.339 24.5589 112.339 24.7519 112.339 24.9192C112.339 24.9642 112.339 25.0157 112.314 25.0607C112.288 25.1058 112.288 25.1572 112.288 25.2023C112.288 25.273 112.288 25.3438 112.314 25.3953C112.339 25.4403 112.339 25.5175 112.339 25.5883C112.339 25.6591 112.339 25.7106 112.314 25.7556C112.288 25.8006 112.288 25.8521 112.288 25.8971C112.288 26.1159 112.314 26.354 112.339 26.5727C112.365 26.7915 112.365 27.0295 112.339 27.2676C112.507 27.2419 112.674 27.1968 112.841 27.1711C112.983 27.1454 113.157 27.1003 113.324 27.0746C113.543 27.0488 113.729 27.0038 113.948 26.933C114.141 26.8623 114.334 26.8365 114.546 26.8365C114.688 26.8365 114.836 26.8108 114.977 26.7657C115.1 26.7207 115.241 26.695 115.383 26.695C115.454 26.6692 115.479 26.6499 115.505 26.6499C115.531 26.6242 115.627 26.6242 115.769 26.6049C115.91 26.6049 116.007 26.6049 116.058 26.5792C116.296 26.5341 116.56 26.4569 116.83 26.3604C117.094 26.2896 117.332 26.2382 117.577 26.2188C117.648 26.2188 117.718 26.1931 117.796 26.1738C117.841 26.1481 117.918 26.1288 117.989 26.1288C118.034 26.1288 118.085 26.1738 118.111 26.251C118.137 26.3475 118.182 26.444 118.207 26.5663C118.233 26.6885 118.233 26.785 118.252 26.9009C118.278 27.0231 118.278 27.0939 118.278 27.1196V27.2161C118.252 27.2419 118.252 27.2869 118.252 27.3577C118.227 27.3834 118.227 27.4027 118.227 27.4285C118.227 27.4542 118.227 27.4735 118.201 27.4992C118.175 27.57 118.149 27.5957 118.079 27.6215C117.956 27.6472 117.815 27.6923 117.673 27.7437C117.532 27.7888 117.384 27.8402 117.242 27.866C117.101 27.8917 116.953 27.9367 116.811 27.9625C116.67 27.9882 116.522 28.0333 116.38 28.059C116.335 28.0847 116.142 28.1555 115.827 28.252C115.511 28.3228 115.151 28.4193 114.771 28.5158C114.385 28.5866 114.025 28.6831 113.691 28.7539C113.33 28.8247 113.111 28.8761 113.015 28.8954C112.944 28.9212 112.873 28.9212 112.796 28.9212C112.719 28.9212 112.655 28.9469 112.577 28.9662C112.121 29.1335 111.69 29.23 111.258 29.2815C111.065 29.3072 110.872 29.3522 110.705 29.423C110.512 29.4681 110.319 29.5195 110.107 29.5453C110.081 29.571 110.01 29.571 109.939 29.5903C109.843 29.5903 109.772 29.5646 109.746 29.5453C109.579 29.5903 109.412 29.6418 109.264 29.6868C109.097 29.7319 108.929 29.7576 108.762 29.7576C108.736 29.7833 108.666 29.7833 108.595 29.7833C108.473 29.7833 108.357 29.7383 108.234 29.616C108.112 29.4938 108.016 29.3522 107.945 29.185C107.848 29.0177 107.778 28.8504 107.726 28.6831C107.655 28.5158 107.63 28.3678 107.63 28.2778C107.63 28.2327 107.63 28.1812 107.655 28.1362C107.681 28.0912 107.7 28.0654 107.778 28.0397C107.945 27.9689 108.164 27.9432 108.376 27.9174C108.588 27.8917 108.807 27.8917 109 27.8724C109.071 27.8724 109.219 27.8467 109.386 27.8016C109.553 27.7566 109.65 27.7566 109.721 27.7759H109.792C109.914 27.7759 110.01 27.7502 110.126 27.7051C110.223 27.6601 110.319 27.6343 110.441 27.6343C110.454 27.4413 110.48 27.2998 110.506 27.1518ZM121.244 15.9565C121.077 15.9307 120.91 15.9114 120.717 15.8857C120.498 15.86 120.311 15.86 120.118 15.86C119.925 15.86 119.803 15.86 119.758 15.86C119.591 15.86 119.398 15.86 119.23 15.8857C119.063 15.9114 118.87 15.9114 118.703 15.9114C118.535 15.9114 118.342 15.9114 118.175 15.8857C118.008 15.86 117.815 15.86 117.648 15.86C117.577 15.86 117.506 15.86 117.455 15.8857C117.403 15.9114 117.332 15.9114 117.261 15.9114H115.048C114.926 15.9114 114.829 15.9114 114.733 15.8857C114.636 15.86 114.54 15.86 114.443 15.86C114.373 15.86 114.302 15.86 114.225 15.8857C114.154 15.9114 114.057 15.9114 113.987 15.9114H112.951C112.951 15.9114 112.925 15.9114 112.854 15.9114C112.783 15.9114 112.687 15.9114 112.616 15.9114C112.545 15.9372 112.475 15.9372 112.397 15.9565C112.327 15.9822 112.301 16.0015 112.301 16.0273C112.275 16.053 112.275 16.053 112.275 16.0723C112.275 16.1431 112.275 16.1945 112.301 16.2396C112.301 16.2846 112.301 16.3361 112.301 16.4069C112.327 16.4326 112.327 16.5034 112.327 16.5999C112.327 16.6707 112.327 16.7221 112.301 16.7672C112.275 16.838 112.275 16.8894 112.275 16.9602C112.275 17.0052 112.275 17.0567 112.301 17.0824C112.301 17.1275 112.301 17.179 112.301 17.224C112.301 17.3913 112.301 17.4878 112.327 17.5586C112.327 17.6293 112.423 17.6551 112.59 17.6551C112.758 17.6551 112.951 17.6293 113.118 17.61C113.285 17.5843 113.478 17.5843 113.646 17.5843C113.961 17.5843 114.244 17.5843 114.559 17.61C114.874 17.6358 115.158 17.6551 115.473 17.6551C115.524 17.6551 115.569 17.6551 115.614 17.6293C115.659 17.6036 115.711 17.6036 115.782 17.6036C115.852 17.6036 115.923 17.6036 116 17.6293C116.045 17.6551 116.123 17.6551 116.193 17.6551C116.361 17.6551 116.554 17.6293 116.721 17.61C116.888 17.5843 117.081 17.5843 117.249 17.5843C117.654 17.5843 118.091 17.5843 118.497 17.61C118.902 17.6358 119.34 17.6358 119.745 17.6358C120.009 17.6358 120.298 17.6358 120.588 17.61C120.877 17.5843 121.167 17.5843 121.431 17.5843C121.457 17.5843 121.457 17.5843 121.476 17.5586C121.476 17.5586 121.476 17.5586 121.502 17.5586C121.527 17.4878 121.527 17.3913 121.527 17.269C121.527 17.1468 121.527 17.031 121.502 16.9087C121.476 16.7865 121.457 16.6707 121.457 16.5484C121.457 16.4776 121.457 16.4069 121.482 16.3297C121.482 16.2846 121.482 16.2331 121.482 16.1624C121.482 16.0787 121.411 16.008 121.244 15.9565ZM120.62 19.0834C120.594 19.0834 120.594 19.0834 120.569 19.0834C120.543 19.1092 120.524 19.1092 120.498 19.1092C120.376 19.1092 120.234 19.0834 120.112 19.0641C119.99 19.0384 119.848 19.0384 119.726 19.0384C119.603 19.0384 119.488 19.0384 119.391 19.0641C119.269 19.0899 119.153 19.1092 119.031 19.1092C118.671 19.1092 118.284 19.1092 117.924 19.0834C117.564 19.0577 117.178 19.0577 116.818 19.0577C116.766 19.0577 116.721 19.0577 116.676 19.0577C116.605 19.0834 116.554 19.0834 116.509 19.0834H116.341C116.316 19.0577 116.174 19.0577 115.936 19.0384C115.672 19.0384 115.408 19.0384 115.093 19.0127C114.778 19.0127 114.469 19.0127 114.205 19.0127C113.916 19.0127 113.748 19.0127 113.678 19.0127C113.607 19.0127 113.555 19.0127 113.51 19.0384C113.465 19.0641 113.414 19.0834 113.343 19.0834C112.983 19.0834 112.719 19.1092 112.552 19.18C112.384 19.2507 112.288 19.4952 112.288 19.9263C112.288 20.0486 112.288 20.1901 112.314 20.3124C112.314 20.4346 112.314 20.5762 112.314 20.6984C112.314 20.7241 112.339 20.7434 112.365 20.8207C112.391 20.8914 112.41 20.9429 112.436 20.9172H112.507C112.577 20.9172 112.674 20.9172 112.745 20.9429C112.816 20.9686 112.912 20.9686 112.983 20.9686H114.089C114.16 20.9686 114.212 20.9429 114.257 20.9236C114.308 20.8979 114.353 20.8979 114.398 20.8979H115.814C115.885 20.8979 115.936 20.8979 116.007 20.9236C116.052 20.9493 116.129 20.9686 116.2 20.9686C116.322 20.9686 116.438 20.9429 116.56 20.9236C116.657 20.8979 116.779 20.8979 116.895 20.8979C117.011 20.8979 117.133 20.8979 117.255 20.9236C117.377 20.9493 117.493 20.9686 117.615 20.9686C117.757 20.9686 117.905 20.9686 118.046 20.9429C118.169 20.9172 118.31 20.9172 118.452 20.9172C118.548 20.9172 118.645 20.9172 118.741 20.9429C118.838 20.9686 118.934 20.9879 119.031 20.9879C119.153 20.9879 119.25 20.9879 119.365 20.9622C119.462 20.9622 119.558 20.9622 119.681 20.9622C119.874 20.9622 120.086 20.9622 120.305 20.9365C120.524 20.9365 120.71 20.9107 120.903 20.84C121.07 20.7949 121.218 20.6984 121.334 20.5504C121.457 20.4282 121.502 20.2158 121.502 19.952C121.502 19.6368 121.476 19.3987 121.405 19.2572C121.334 19.1349 121.115 19.0641 120.755 19.0641C120.691 19.0577 120.646 19.0577 120.62 19.0834ZM116.033 14.2514C116.007 14.2257 116.007 14.1807 116.007 14.1549C116.007 14.0327 116.033 13.9169 116.052 13.7946C116.078 13.6981 116.078 13.5759 116.078 13.4601C116.078 13.267 116.078 13.074 116.078 12.8617C116.052 12.6687 116.052 12.4756 116.052 12.2826C116.052 12.1604 116.148 12.1153 116.367 12.0896C116.56 12.0639 116.682 12.0639 116.753 12.0639C117.255 12.0639 117.57 12.1861 117.667 12.4499C117.763 12.7137 117.808 13.074 117.808 13.5051V14.1549C117.808 14.2514 117.834 14.2965 117.86 14.3222C117.886 14.348 117.931 14.3673 118.001 14.3673C118.027 14.3415 118.072 14.3415 118.124 14.3415C118.291 14.3415 118.484 14.3415 118.651 14.3673C118.819 14.393 119.012 14.4123 119.179 14.4123C119.25 14.4123 119.301 14.4123 119.346 14.3866C119.398 14.3608 119.443 14.3608 119.513 14.3608C119.61 14.3608 119.706 14.3608 119.803 14.3866C119.899 14.4123 119.996 14.4123 120.092 14.4123C120.163 14.4123 120.26 14.3866 120.331 14.3673C120.401 14.3415 120.498 14.3415 120.569 14.3415C120.807 14.3415 121.051 14.3415 121.289 14.3673C121.527 14.393 121.772 14.393 122.01 14.393C122.036 14.393 122.081 14.393 122.132 14.393C122.158 14.4187 122.203 14.4187 122.229 14.393C122.203 14.3222 122.106 14.2708 121.991 14.2C121.849 14.1292 121.727 14.0777 121.656 14.0327C121.585 13.9619 121.489 13.8911 121.418 13.8139C121.347 13.7432 121.251 13.6917 121.18 13.6209C121.083 13.5501 120.987 13.4794 120.89 13.4021C120.794 13.3314 120.697 13.2799 120.601 13.2091C120.195 12.8939 119.809 12.585 119.449 12.2247C119.089 11.8644 118.703 11.5298 118.342 11.1695C118.272 11.1245 118.175 11.028 118.027 10.8543C117.886 10.687 117.738 10.5197 117.596 10.3524C117.429 10.1851 117.281 10.0371 117.165 9.89557C117.023 9.77333 116.927 9.70255 116.875 9.70255C116.824 9.70255 116.779 9.74759 116.708 9.8248C116.637 9.92131 116.541 10.0178 116.47 10.1401C116.399 10.2623 116.303 10.3588 116.232 10.4553C116.161 10.5776 116.09 10.6484 116.039 10.6934C115.872 10.8156 115.724 11.0087 115.556 11.221C115.389 11.4591 115.222 11.6778 115.1 11.8451C114.836 12.1346 114.572 12.3984 114.308 12.6365C114.044 12.9003 113.755 13.1641 113.491 13.4279C113.465 13.4536 113.42 13.4987 113.395 13.5501C113.35 13.5952 113.298 13.6466 113.272 13.6724C113.247 13.6981 113.176 13.7432 113.105 13.7946C113.034 13.8397 112.938 13.8911 112.867 13.9362C112.796 14.007 112.725 14.0584 112.648 14.1292C112.577 14.2 112.552 14.2708 112.552 14.3222C112.622 14.3673 112.745 14.393 112.912 14.393C113.079 14.4187 113.202 14.4187 113.298 14.4187C113.369 14.4187 113.42 14.4187 113.491 14.393C113.536 14.3673 113.588 14.3673 113.658 14.3673H116.058C116.052 14.348 116.052 14.3029 116.033 14.2514ZM122.853 22.4678C122.782 22.4678 122.685 22.4678 122.615 22.442C122.518 22.4163 122.422 22.4163 122.351 22.4163C122.016 22.4163 121.682 22.4163 121.366 22.442C121.032 22.4678 120.691 22.4678 120.356 22.4678H118.22C118.149 22.4678 118.098 22.4678 118.079 22.442C118.027 22.4163 117.982 22.4163 117.911 22.4163C117.789 22.4163 117.693 22.4163 117.622 22.442C117.648 22.4871 117.693 22.5643 117.789 22.6608C117.86 22.7316 117.911 22.8281 117.956 22.8989C118.001 22.9696 118.079 23.0661 118.149 23.1369C118.22 23.2077 118.317 23.3299 118.484 23.4972C118.626 23.6645 118.799 23.8575 118.986 24.0248C119.153 24.2178 119.346 24.3851 119.513 24.5267C119.681 24.6682 119.803 24.7647 119.874 24.7905C120.015 24.7197 120.189 24.6232 120.376 24.5009C120.543 24.3787 120.736 24.2372 120.929 24.0956C121.122 23.9541 121.315 23.8061 121.508 23.6645C121.675 23.523 121.843 23.4007 122.01 23.3042C122.081 23.2592 122.177 23.182 122.248 23.0855C122.319 22.9889 122.415 22.8924 122.486 22.8217C122.512 22.8217 122.608 22.7766 122.724 22.6544C122.846 22.5579 122.943 22.4871 122.962 22.4613H122.853V22.4678Z" fill="white"/>
<path d="M139.767 15.1394C139.67 15.1394 139.529 15.1844 139.361 15.2616C139.194 15.3582 139.001 15.4547 138.808 15.5769C138.615 15.6992 138.448 15.8407 138.281 15.963C138.113 16.0852 138.017 16.1817 137.965 16.2525C137.894 16.3233 137.824 16.4198 137.772 16.4906C137.721 16.5613 137.65 16.6578 137.579 16.7286C137.457 16.8509 137.315 16.9667 137.174 17.0439C137.032 17.1147 136.91 17.2112 136.788 17.3334C136.717 17.4042 136.646 17.475 136.569 17.5522C136.498 17.623 136.402 17.6937 136.331 17.7709C136.067 17.9382 135.803 18.1055 135.585 18.2535C135.347 18.3951 135.083 18.5173 134.793 18.6395C134.722 18.6653 134.6 18.7103 134.433 18.7811C134.266 18.8519 134.143 18.8776 134.073 18.8776C133.905 18.8776 133.687 18.8776 133.449 18.8519C133.21 18.8519 132.966 18.8261 132.754 18.7554C132.535 18.7103 132.348 18.6138 132.175 18.4916C132.007 18.3693 131.937 18.1763 131.937 17.964C131.937 17.7259 132.007 17.4814 132.155 17.2433C132.297 17.0053 132.516 16.883 132.779 16.883C132.947 16.883 133.114 16.9088 133.281 16.9538C133.423 16.9989 133.597 17.0246 133.764 17.0246C133.931 17.0246 134.124 16.9989 134.362 16.9281C134.6 16.8573 134.793 16.7865 134.916 16.7093C135.038 16.6321 135.154 16.5163 135.25 16.394C135.321 16.2718 135.417 16.1753 135.54 16.0788C135.758 15.8858 135.996 15.6927 136.215 15.4804C136.434 15.2874 136.621 15.0944 136.839 14.882C136.91 14.8113 137.007 14.7405 137.077 14.7148C137.148 14.689 137.219 14.644 137.245 14.5925C137.315 14.5217 137.386 14.451 137.463 14.3737C137.508 14.303 137.586 14.2322 137.656 14.155C137.779 14.0327 137.92 13.9362 138.139 13.8397C138.332 13.7689 138.544 13.6982 138.763 13.621C138.982 13.5502 139.194 13.4987 139.413 13.4794C139.632 13.4537 139.799 13.4344 139.941 13.4344C140.732 13.4344 141.407 13.5759 141.961 13.8655C142.488 14.155 142.997 14.6118 143.499 15.2102C143.621 15.3775 143.737 15.5254 143.833 15.6927C143.904 15.86 144.026 16.008 144.148 16.1753C144.245 16.3168 144.367 16.4648 144.483 16.6064C144.599 16.7479 144.721 16.8702 144.843 16.9924C144.966 17.0889 145.081 17.2112 145.178 17.327C145.3 17.4943 145.442 17.6873 145.564 17.8546C145.686 18.0476 145.802 18.2149 145.95 18.3822C146.169 18.6009 146.381 18.8133 146.626 18.9806C146.864 19.1736 147.108 19.3666 147.32 19.5596C147.584 19.7977 147.874 20.0164 148.138 20.2352C148.401 20.454 148.691 20.6405 149 20.8336C149.122 20.9043 149.238 20.9558 149.36 20.9558C149.482 20.9816 149.624 21.0009 149.746 21.0781C150.036 21.2196 150.37 21.3419 150.756 21.4126C151.117 21.4834 151.477 21.5542 151.792 21.5799C151.959 21.6057 152.152 21.625 152.32 21.6507C152.487 21.6764 152.68 21.6957 152.847 21.6957C152.918 21.6957 152.989 21.6957 153.066 21.67C153.111 21.67 153.188 21.67 153.259 21.67C153.304 21.67 153.356 21.67 153.426 21.67C153.478 21.67 153.523 21.6957 153.549 21.7408C153.619 21.7858 153.671 21.9081 153.671 22.1011C153.645 22.2941 153.645 22.4357 153.671 22.5064C153.697 22.5322 153.697 22.5772 153.716 22.6029C153.742 22.648 153.742 22.6995 153.742 22.7252C153.742 22.796 153.716 22.8667 153.697 22.9439C153.671 23.0147 153.626 23.1112 153.6 23.182C153.478 23.4715 153.311 23.6131 153.118 23.6388C152.925 23.6646 152.686 23.6839 152.423 23.6839C152.204 23.6839 151.992 23.6388 151.773 23.5423C151.554 23.4715 151.367 23.4201 151.219 23.4201C151.194 23.4458 151.149 23.4651 151.078 23.4458C151.007 23.4458 150.956 23.4458 150.936 23.4458C150.891 23.4458 150.795 23.4201 150.621 23.375C150.454 23.3493 150.261 23.3043 150.068 23.2528C149.875 23.2077 149.707 23.1563 149.54 23.1112C149.373 23.0662 149.251 23.0405 149.206 23.0147C149.135 22.989 149.038 22.9439 148.968 22.8732C148.897 22.8024 148.8 22.7509 148.704 22.7316C148.582 22.7059 148.44 22.6608 148.247 22.5901C148.028 22.545 147.912 22.4678 147.842 22.3713C147.674 22.2748 147.526 22.1783 147.359 22.1075C147.192 22.0367 147.044 21.9402 146.902 21.818C146.587 21.5992 146.304 21.3612 146.04 21.1231C145.751 20.885 145.461 20.6212 145.197 20.3574C145.126 20.2867 145.075 20.2159 145.03 20.1387C144.985 20.0679 144.933 20.0164 144.863 19.9457C144.457 19.5403 144.071 19.0578 143.685 18.5044C143.64 18.4337 143.614 18.3629 143.589 18.2857C143.563 18.2149 143.544 18.1441 143.466 18.0669C143.344 17.8996 143.151 17.6616 142.939 17.3463C142.72 17.0568 142.482 16.7672 142.244 16.4584C141.98 16.1689 141.742 15.9051 141.478 15.667C141.214 15.4482 140.996 15.3067 140.803 15.2359C140.565 15.1651 140.32 15.1394 140.082 15.1394H139.767ZM149.038 15.0686C148.968 15.1137 148.897 15.1394 148.82 15.1394C148.749 15.1651 148.652 15.1651 148.556 15.1394C148.459 15.1394 148.388 15.1394 148.318 15.1394C148.247 15.1394 148.176 15.1394 148.099 15.1651C148.028 15.1909 147.957 15.1909 147.88 15.1909C147.835 15.1909 147.809 15.1458 147.784 15.0493C147.758 14.9785 147.732 14.882 147.732 14.7598C147.706 14.6633 147.706 14.5668 147.706 14.4703C147.681 14.3737 147.681 14.303 147.681 14.2772C147.655 14.2515 147.655 14.1807 147.655 14.1099C147.655 13.8912 147.681 13.6531 147.706 13.4151C147.732 13.1963 147.752 12.9582 147.752 12.7395V12.0189C147.752 11.9738 147.752 11.9224 147.726 11.8966C147.726 11.8516 147.726 11.8001 147.726 11.7551C147.7 11.7293 147.7 11.6843 147.7 11.6328C147.7 11.5363 147.726 11.4398 147.745 11.3176C147.771 11.1953 147.842 11.1503 147.964 11.1503C147.99 11.1503 148.06 11.1503 148.183 11.1503C148.279 11.176 148.35 11.176 148.376 11.1953C148.427 11.1953 148.498 11.1953 148.614 11.1953C148.736 11.221 148.807 11.1953 148.852 11.1696C148.877 11.1696 148.923 11.1696 148.993 11.1696C149.045 11.1953 149.064 11.2146 149.064 11.2918C149.064 11.3176 149.064 11.3626 149.038 11.4141C149.013 11.4655 149.013 11.5106 149.013 11.5363C148.987 11.5621 148.987 11.5814 148.987 11.6586C148.987 11.8258 149.013 11.9931 149.058 12.1604C149.083 12.3277 149.109 12.495 149.109 12.6623C149.109 12.881 149.083 13.0934 149.058 13.2864C149.032 13.5051 149.013 13.7175 149.013 13.9362C149.013 14.0778 149.038 14.2258 149.058 14.3416C149.077 14.4574 149.109 14.6311 149.109 14.8434C149.135 14.9528 149.116 15.0236 149.038 15.0686ZM150.743 15.1909C150.718 15.1909 150.698 15.1909 150.673 15.1651C150.647 15.1651 150.621 15.1394 150.621 15.0944C150.621 15.0686 150.621 15.0236 150.621 14.9979V14.9528C150.621 14.882 150.621 14.7855 150.647 14.689C150.673 14.5925 150.673 14.496 150.673 14.4252C150.673 14.2322 150.647 14.0392 150.621 13.8462C150.595 13.6531 150.576 13.4601 150.576 13.2671C150.576 13.1448 150.602 13.0033 150.621 12.881C150.647 12.7588 150.673 12.643 150.673 12.5207V11.562C150.673 11.3948 150.718 11.2983 150.814 11.2468C150.911 11.221 151.033 11.2017 151.149 11.2017H151.824C151.947 11.2017 152.017 11.2275 151.992 11.2725C151.966 11.3433 151.966 11.4141 151.966 11.4913C151.966 11.6586 151.992 11.8065 152.017 11.9481C152.043 12.0896 152.043 12.2376 152.043 12.4049C152.043 12.4757 152.043 12.5722 152.043 12.643C152.017 12.7395 152.017 12.836 152.017 12.9068C152.017 12.9775 152.043 13.0483 152.062 13.0998C152.088 13.1706 152.088 13.2413 152.088 13.3186C152.088 13.4151 152.088 13.5116 152.062 13.5824C152.037 13.6789 152.037 13.7754 152.037 13.8719C152.037 13.9941 152.037 14.1357 152.062 14.2772C152.062 14.4188 152.062 14.5668 152.062 14.6826V14.9013C152.062 14.9464 152.037 14.9979 151.966 15.0236C151.895 15.0493 151.799 15.0686 151.728 15.0944C151.631 15.1201 151.535 15.1394 151.464 15.1651C151.367 15.1909 151.297 15.1909 151.271 15.1909H150.814C150.795 15.1909 150.769 15.1909 150.743 15.1909Z" fill="white"/>
<path d="M26.515 35.4646C26.3477 35.233 26.0131 34.4738 25.7107 34.4481C25.003 34.3901 24.9387 33.38 25.5177 33.2449C25.5113 33.2256 25.4984 33.2127 25.4984 33.1934C25.4984 33.1419 25.5242 33.1226 25.5692 33.0969C25.5949 33.0712 25.64 33.0454 25.6657 33.0261C25.833 32.9039 26.0518 32.7623 26.322 32.6401C26.5665 32.5178 26.7595 32.3956 26.8817 32.254C27.049 32.106 27.2228 31.9645 27.4415 31.8165L28.0206 31.4498C28.2908 31.3018 28.5546 31.1088 28.8441 30.845C29.1337 30.5747 29.4039 30.3624 29.6227 30.163C29.6741 30.1372 29.7192 30.0922 29.79 30.0407C29.8607 30.015 29.8865 29.9442 29.8865 29.8734C29.8865 29.8026 29.835 29.7061 29.7192 29.5839C29.5969 29.4616 29.4489 29.3201 29.2817 29.1978C29.1144 29.0756 28.9664 28.9533 28.8184 28.8568C28.6511 28.7861 28.5482 28.7346 28.4774 28.7346C28.4066 28.7603 28.3294 28.8311 28.2329 28.9019L27.9434 29.1914C27.8469 29.2879 27.7504 29.3587 27.6796 29.4359C27.6088 29.5067 27.5316 29.5581 27.5123 29.5581C27.4608 29.5067 27.4415 29.4102 27.4415 29.2944V29.0048C27.4415 28.8375 27.4415 28.6638 27.4673 28.4965C27.493 28.3485 27.493 28.1813 27.493 28.014C27.493 27.8467 27.493 27.6987 27.4673 27.5314C27.4415 27.3834 27.4415 27.2419 27.4415 27.0682V26.5599C27.4158 26.3411 27.4415 26.1931 27.4673 26.1223C27.493 26.0966 27.493 26.0516 27.5187 26.0258V25.9551C27.5187 25.7363 27.5187 25.4918 27.493 25.2537C27.4673 25.0093 27.4415 24.7712 27.4415 24.5524C27.4415 24.4817 27.4673 24.4044 27.493 24.3337C27.5187 24.2822 27.5187 24.2372 27.5187 24.1664C27.5187 23.9476 27.5187 23.7031 27.493 23.4844C27.4673 23.2656 27.4415 23.0211 27.4415 22.8024C27.4415 22.7316 27.4673 22.6351 27.493 22.5321C27.5187 22.545 27.5509 22.5643 27.5959 22.5836C27.2228 21.9917 27.3386 21.3161 27.4415 20.4282C27.448 20.4282 27.4479 20.4282 27.4544 20.4282C27.4544 20.4024 27.4608 20.3767 27.4608 20.351C27.2356 20.1772 27.004 20.0164 26.7852 19.862C26.7145 19.8362 26.6373 19.7912 26.5407 19.714C26.4442 19.6625 26.3735 19.6175 26.3477 19.566C26.2769 19.5403 26.1997 19.4695 26.129 19.373C26.0324 19.3022 25.9359 19.225 25.8587 19.18C25.3504 18.8132 24.8421 18.4014 24.3532 17.9446C23.8706 17.4814 23.4073 16.9988 22.9956 16.5356C22.8991 16.439 22.8025 16.3425 22.7318 16.246C22.661 16.1495 22.5645 16.053 22.4615 15.9565C22.3908 15.8857 22.3135 15.7892 22.2428 15.667C22.172 15.5704 22.0948 15.4739 22.024 15.4032C21.9532 15.3324 21.831 15.2552 21.6573 15.2359C21.49 15.2101 21.342 15.2101 21.2198 15.2101H20.7822C20.7501 15.2166 20.7179 15.2166 20.6922 15.2166C20.5442 15.178 20.4026 15.1522 20.2482 15.1329C20.2482 15.075 20.2418 15.0107 20.2353 14.927C20.1839 14.7083 20.1388 14.4895 20.0874 14.2257C20.0166 13.9619 19.9651 13.7174 19.8943 13.4729C19.8236 13.2542 19.7463 13.0869 19.727 13.0097C19.7013 12.9582 19.6563 12.8874 19.5791 12.7909C19.5083 12.7201 19.4826 12.6429 19.4826 12.5979C19.4826 12.3791 19.4826 12.1346 19.5083 11.9159C19.534 11.6971 19.534 11.4526 19.534 11.2339C19.534 11.0666 19.5598 10.9186 19.5855 10.7706C19.6112 10.6226 19.637 10.4811 19.637 10.3074C19.637 10.2366 19.6112 10.1143 19.5405 9.94062C19.5662 9.86984 19.5662 9.7476 19.5919 9.59961C19.6177 9.45163 19.6627 9.35512 19.7399 9.32938C19.7657 9.32938 19.8879 9.32938 20.126 9.30365C20.3447 9.30365 20.6085 9.30365 20.9045 9.27791H22.1656C22.2878 9.27791 22.4101 9.27791 22.5323 9.30365C22.6288 9.32938 22.7511 9.35512 22.8733 9.35512C23.1178 9.35512 23.3559 9.35512 23.5746 9.32938C23.7934 9.30365 24.0379 9.30365 24.2759 9.30365H24.9065C25.0995 9.32938 25.2925 9.32938 25.5113 9.32938C25.6335 9.32938 25.7558 9.32938 25.878 9.30365C26.0003 9.27791 26.1225 9.27791 26.2448 9.27791C26.367 9.27791 26.515 9.27791 26.6308 9.30365C26.7531 9.32938 26.8753 9.32938 26.9976 9.32938C27.1648 9.32938 27.3643 9.32938 27.5573 9.30365C27.7246 9.27791 27.8211 9.15566 27.8211 8.9176V8.69884C27.7954 8.62807 27.7954 8.55086 27.7954 8.48008C27.7954 8.40931 27.7954 8.3128 27.8211 8.21629V7.92675C27.7954 7.85598 27.7697 7.77877 27.7504 7.70799C27.6989 7.65652 27.6281 7.63722 27.5316 7.63722H27.2614C27.1648 7.66295 27.0683 7.66295 26.9718 7.66295C26.8045 7.66295 26.6566 7.63722 26.5343 7.61148C26.3863 7.58574 26.2448 7.58574 26.0968 7.58574C26.0711 7.56001 26.0003 7.56001 25.9295 7.56001C25.8587 7.56001 25.7622 7.58574 25.685 7.61148C25.6142 7.63722 25.5177 7.66295 25.4405 7.66295C25.3697 7.66295 25.2925 7.66295 25.2218 7.63722C25.151 7.61148 25.0738 7.61148 25.003 7.61148H24.3467C24.2245 7.61148 24.128 7.61148 24.0314 7.63722C23.9349 7.66295 23.8384 7.66295 23.7419 7.66295C23.5939 7.66295 23.4524 7.63722 23.3301 7.59218C23.2079 7.56644 23.0663 7.54071 22.9184 7.54071C22.7961 7.54071 22.6546 7.56644 22.5066 7.59218C22.3586 7.61791 22.217 7.64365 22.0948 7.64365H20.6407C20.1774 7.64365 19.8879 7.57288 19.7206 7.45063C19.5533 7.32838 19.4761 7.03885 19.4761 6.57559V6.22815C19.4761 6.1059 19.5019 5.98366 19.5469 5.86141C19.5726 5.7649 19.5984 5.64265 19.5984 5.5204C19.5984 5.30164 19.5984 5.08288 19.5726 4.86413C19.5469 4.6711 19.5469 4.45234 19.5469 4.23359C19.5469 4.11134 19.5469 3.96979 19.5726 3.84754C19.5984 3.72529 19.5984 3.60305 19.5984 3.4808C19.5984 3.35855 19.5726 3.26847 19.5212 3.217C19.4697 3.19126 19.3732 3.16553 19.2509 3.16553H18.8842C18.7619 3.19126 18.6397 3.19126 18.5174 3.19126C18.2086 3.19126 18.0156 3.217 17.9191 3.24274C17.8226 3.26847 17.7711 3.4615 17.7711 3.77677C17.7711 3.87328 17.7711 3.96979 17.7968 4.0663V4.35583C17.7968 4.52312 17.7968 4.6711 17.7711 4.81909C17.7453 4.96707 17.7196 5.10862 17.7196 5.28234C17.7196 5.5011 17.7453 5.69412 17.7904 5.88715C17.8419 6.08017 17.8612 6.27319 17.8612 6.49195C17.8612 6.56272 17.8354 6.63993 17.8097 6.71071C17.7582 6.80722 17.7389 6.9552 17.7389 7.12249C17.7389 7.27047 17.7132 7.38629 17.6424 7.4635C17.5202 7.53427 17.3979 7.56001 17.2564 7.56001C17.0891 7.58574 16.9411 7.58574 16.7738 7.58574C16.6065 7.61148 16.4585 7.63722 16.2912 7.65652C16.1947 7.68226 16.124 7.70799 16.0467 7.70799C15.828 7.70799 15.635 7.68226 15.5127 7.63722C15.3647 7.61148 15.2232 7.58574 15.0752 7.58574H13.7884C13.7176 7.58574 13.6661 7.58574 13.6211 7.61148C13.5503 7.63722 13.4989 7.63722 13.4281 7.63722C13.3316 7.63722 13.2351 7.63722 13.1578 7.61148H12.8683C12.7718 7.61148 12.6753 7.61148 12.6045 7.63722C12.5337 7.66295 12.4372 7.66295 12.3343 7.66295C12.2378 7.66295 12.1413 7.63722 12.0447 7.61148C11.9482 7.58574 11.8517 7.56001 11.7295 7.56001C11.5365 7.56001 11.3434 7.56001 11.144 7.58574C10.951 7.61148 10.7579 7.63722 10.5649 7.63722H7.43151C7.38004 7.63722 7.30926 7.63722 7.21275 7.61148H6.92322C6.80097 7.61148 6.70446 7.61148 6.63368 7.63722C6.56291 7.66295 6.51143 7.70799 6.4857 7.75946C6.45996 7.81094 6.45996 7.88171 6.45996 7.97822C6.45996 8.10047 6.4857 8.24202 6.53074 8.36427C6.55647 8.51225 6.58221 8.6538 6.58221 8.77605C6.58221 8.82752 6.58221 8.87256 6.55647 8.8983C6.55647 8.92403 6.55647 8.96907 6.53074 8.99481C6.505 9.04628 6.505 9.09132 6.505 9.11706C6.505 9.2393 6.60151 9.28434 6.79453 9.31008C6.96182 9.33582 7.1098 9.33582 7.18058 9.33582C7.30283 9.33582 7.45081 9.33582 7.59236 9.31008H8.00414C8.17143 9.31008 8.31941 9.31008 8.4867 9.33582C8.63468 9.36155 8.77623 9.36155 8.94995 9.36155C9.02073 9.36155 9.0722 9.36155 9.11724 9.33582C9.14297 9.31008 9.18801 9.31008 9.26522 9.31008H9.45824C9.55476 9.33582 9.65127 9.33582 9.77351 9.33582H10.063C10.1338 9.33582 10.211 9.33582 10.2303 9.31008H10.3783C10.5006 9.31008 10.5971 9.31008 10.7193 9.33582C10.8158 9.36155 10.9123 9.36155 11.0346 9.36155C11.1311 9.36155 11.2276 9.36155 11.3241 9.33582C11.3949 9.33582 11.4914 9.33582 11.5879 9.31008C11.9289 9.25861 12.2892 9.2393 12.656 9.25861C13.0227 9.28434 13.3573 9.28434 13.6983 9.28434H15.3004C15.8087 9.31008 16.3427 9.31008 16.8767 9.31008C16.9475 9.31008 17.0247 9.31008 17.0955 9.28434C17.1663 9.25861 17.2435 9.25861 17.3143 9.25861C17.5073 9.25861 17.6295 9.28434 17.681 9.32938C17.7325 9.38085 17.7518 9.49667 17.7518 9.67039C17.7518 9.88915 17.7518 10.1079 17.726 10.3267C17.7003 10.5454 17.6746 10.7899 17.6746 11.0087V11.176C17.7003 11.2017 17.7003 11.2274 17.7003 11.2467C17.7003 11.2725 17.7003 11.2982 17.726 11.3175V11.3883C17.726 11.4591 17.7003 11.5105 17.6295 11.5363C17.5588 11.562 17.5073 11.562 17.4365 11.562C17.3143 11.562 17.2178 11.562 17.1212 11.5363C17.0247 11.5105 16.9282 11.5105 16.806 11.5105H16.5357C16.4392 11.5105 16.3427 11.5363 16.2655 11.562C16.1433 11.6135 16.021 11.6585 15.8988 11.6843C15.7765 11.7357 15.68 11.8065 15.5578 11.8773C15.2425 12.096 14.9272 12.3405 14.6119 12.6301C14.2967 12.9453 14.0522 13.2606 13.9106 13.6016C13.8399 13.7946 13.7626 14.0134 13.7176 14.2836C13.6661 14.5539 13.6468 14.7662 13.6468 14.9849V15.4482C13.6468 15.6155 13.6726 15.7635 13.6983 15.8857C13.7691 16.349 13.9685 16.7865 14.2323 17.1983C14.4961 17.6101 14.8371 17.9253 15.2747 18.099C15.3712 18.1248 15.4677 18.1698 15.5642 18.2213C15.6607 18.2921 15.7572 18.3178 15.8795 18.3178C16.0017 18.3178 16.0982 18.2663 16.2205 18.1956C16.317 18.1248 16.3878 18.0025 16.465 17.8803C16.5357 17.758 16.5872 17.6358 16.6323 17.4942C16.658 17.372 16.6837 17.2497 16.6837 17.1532C16.6837 16.9859 16.6323 16.8637 16.5164 16.7672C16.3942 16.6964 16.2526 16.5999 16.1047 16.4777C15.9567 16.3554 15.8409 16.2332 15.7186 16.0659C15.5964 15.9179 15.5256 15.6991 15.5256 15.4353C15.5256 15.2166 15.5513 14.9978 15.5964 14.734C15.6478 14.4638 15.7186 14.2257 15.8409 14.007C15.9631 13.7882 16.1047 13.6209 16.2784 13.4472C16.4457 13.2992 16.6902 13.2284 16.9604 13.2284C17.1791 13.2284 17.3722 13.2799 17.5652 13.3764C17.7325 13.4987 17.9062 13.6209 18.0477 13.7882C18.17 13.9555 18.2922 14.1292 18.363 14.3222C18.4338 14.541 18.4853 14.734 18.4853 14.927C18.4853 14.9978 18.4853 15.075 18.4595 15.1458C18.4338 15.2166 18.4338 15.2938 18.4338 15.3646C18.4081 15.3903 18.4081 15.4611 18.4081 15.5318C18.4081 15.6026 18.4338 15.6798 18.4595 15.7506C18.4853 15.8214 18.4853 15.9179 18.4853 16.0144C18.4853 16.1817 18.4595 16.3554 18.4338 16.5484C18.3823 16.7414 18.3373 16.9152 18.2665 17.0825C18.215 17.2304 18.1443 17.4235 18.0477 17.6422C17.9255 17.8867 17.829 18.1248 17.7067 18.3693C17.5845 18.6138 17.488 18.8325 17.3657 19.0513C17.2435 19.27 17.1212 19.4373 17.0247 19.5338L16.0081 20.5504C15.9374 20.6212 15.8409 20.6984 15.7186 20.7177C15.5964 20.7692 15.4999 20.84 15.4033 20.9107C15.1846 21.078 14.9401 21.226 14.7213 21.3483C14.5026 21.4705 14.2581 21.5927 13.9943 21.715C13.9235 21.7407 13.8463 21.7858 13.8013 21.8115C13.7305 21.8372 13.6533 21.8823 13.5825 21.908C13.4602 21.9595 13.338 21.9788 13.2158 21.9788C13.0935 21.9788 12.997 22.0045 12.8747 22.0753C12.7525 22.1461 12.6109 22.2233 12.4372 22.2683C12.2699 22.3198 12.0962 22.3391 11.9289 22.3391C11.7359 22.3391 11.5429 22.3906 11.3241 22.4614C11.2984 22.4871 11.2019 22.5128 11.0796 22.5321C10.9574 22.5836 10.8866 22.6286 10.8866 22.6801C10.8866 22.7058 10.9123 22.7509 10.9831 22.8281C11.0539 22.8989 11.1054 22.9761 11.1311 23.0469C11.1826 23.1691 11.2534 23.3621 11.3241 23.6066C11.3949 23.8511 11.4914 24.0184 11.5686 24.1149C11.5944 24.1664 11.6909 24.1857 11.8131 24.1857C11.9804 24.1857 12.1541 24.1599 12.2764 24.1149C12.3986 24.0441 12.5209 23.9927 12.6882 23.9476C12.8104 23.9219 12.952 23.8962 13.0742 23.8769C13.1964 23.8511 13.3444 23.8254 13.4602 23.8061C13.531 23.7803 13.6082 23.7353 13.679 23.6838C13.7498 23.6324 13.827 23.5873 13.8978 23.5616C13.9943 23.5358 14.0908 23.5101 14.1873 23.5101C14.2838 23.4844 14.3803 23.4586 14.4768 23.4393C14.4961 23.4329 14.5154 23.4265 14.5347 23.42C14.5412 23.4779 14.5476 23.5358 14.5669 23.5938C14.5669 23.716 14.5669 23.8125 14.5926 23.909V24.1278C14.5926 24.4173 14.5926 24.7133 14.5669 25.0028C14.5412 25.2924 14.5154 25.5819 14.5154 25.8779C14.5154 25.9486 14.5412 26.0451 14.5669 26.1223C14.5926 26.2189 14.5926 26.3154 14.5926 26.4119C14.5926 26.7979 14.5926 27.1904 14.5669 27.5765C14.5412 27.9882 14.5412 28.3743 14.5412 28.7668C14.5412 28.8182 14.5412 28.8633 14.5669 28.9147C14.5926 28.9662 14.5926 29.0113 14.5926 29.0627V33.8175C14.5926 33.8883 14.5926 33.9655 14.5669 34.0105C14.5412 34.0813 14.5412 34.1585 14.5412 34.2293V34.6925C14.5154 34.8405 14.4897 34.9821 14.4704 35.1301C14.3482 35.1301 14.2516 35.1558 14.1551 35.2008C14.0329 35.2523 13.9364 35.2716 13.8141 35.2716H13.7433C13.6726 35.2459 13.5761 35.2459 13.4023 35.2974C13.383 35.3038 13.3702 35.3038 13.3573 35.3102C13.3895 35.381 13.4152 35.4582 13.4216 35.5354C13.4989 35.5805 13.5761 35.6384 13.634 35.7284C13.8592 36.0759 14.1744 36.2818 14.5412 36.3911C15.0173 36.3847 15.487 36.3654 15.9631 36.3332C16.0274 36.2882 16.0854 36.2496 16.1497 36.2046C16.1497 36.1595 16.1561 36.1209 16.1626 36.0759C16.2462 35.6705 16.3234 35.2652 16.4071 34.8598C16.4135 34.8277 16.4328 34.8019 16.4457 34.7762C16.4328 34.7762 16.4135 34.7826 16.4006 34.7826C16.4264 34.5381 16.4264 34.3001 16.4006 34.0813C16.3749 33.8626 16.3492 33.6181 16.3492 33.3993C16.3492 33.3478 16.3492 33.3028 16.3749 33.2513C16.4006 33.1998 16.4006 33.1548 16.4006 33.084C16.4006 33.0133 16.4006 32.936 16.3749 32.891C16.3492 32.8395 16.3492 32.7688 16.3492 32.698C16.3492 32.6465 16.3492 32.6015 16.3749 32.55C16.4006 32.4985 16.4006 32.4535 16.4006 32.402C16.4006 32.2347 16.4006 32.0353 16.3749 31.868C16.3492 31.7007 16.3492 31.5012 16.3492 31.334C16.3492 31.2632 16.3492 31.186 16.3749 31.1152C16.4006 31.0444 16.4006 30.9672 16.4006 30.8964C16.4006 30.7742 16.4006 30.6777 16.3749 30.5554C16.3492 30.4589 16.3492 30.3624 16.3492 30.2402C16.3492 30.1179 16.3749 30.0214 16.4199 29.9764C16.4457 29.9249 16.5422 29.9056 16.6644 29.9056C16.8317 29.9056 17.0312 29.9056 17.1984 29.9313C17.3657 29.9571 17.5395 29.9571 17.7067 29.9571C18.0477 29.9571 18.3888 29.9571 18.7233 29.9313C19.0386 29.9056 19.3796 29.9056 19.7206 29.9056C19.7463 29.9056 19.7914 29.9056 19.8171 29.9313C19.8429 29.9571 19.8429 29.9828 19.8686 30.0021C20.0359 30.2209 20.2353 30.4396 20.4026 30.7034C20.5699 30.9736 20.7436 31.2374 20.8659 31.4819C20.9624 31.6492 21.0589 31.8229 21.1811 31.9452C21.5222 32.3119 21.8825 32.6722 22.2492 33.0133C22.4165 33.1612 22.661 33.3543 22.9505 33.6181C23.2143 33.8819 23.4588 34.0813 23.6325 34.2036C23.8513 34.3258 24.0443 34.4674 24.2373 34.5896C24.4304 34.7376 24.6234 34.8791 24.8421 35.0014C24.9644 35.0722 25.1059 35.1494 25.2797 35.2201C25.4469 35.2909 25.5949 35.3681 25.7429 35.4389C25.8394 35.4904 25.9359 35.5354 26.0324 35.6062C26.129 35.6577 26.2255 35.7027 26.2962 35.7542C26.56 35.8764 26.8238 35.9729 27.0683 36.0694C26.856 35.8829 26.6759 35.6834 26.515 35.4646ZM17.7968 21.4898C17.9191 21.3676 18.0413 21.226 18.1378 21.1038C18.2343 20.9815 18.3308 20.8593 18.4531 20.7177C18.5496 20.5697 18.6976 20.3767 18.8649 20.1579C18.9357 20.0872 19.0129 19.9907 19.0836 19.9135C19.1544 19.8427 19.2059 19.7655 19.2509 19.6947C19.3474 19.5274 19.4697 19.2829 19.5919 18.9934C19.7142 18.7038 19.8107 18.3886 19.9072 18.0476C20.0037 17.7323 20.1002 17.417 20.1774 17.1018C20.1839 17.0696 20.1903 17.0439 20.1967 17.0117C20.5184 17.0052 20.8337 17.0439 21.1361 17.1597C21.1747 17.1918 21.2133 17.2176 21.2648 17.2562C21.387 17.4042 21.5286 17.5457 21.7023 17.7194C21.8503 17.8867 21.9918 18.0604 22.1398 18.2277C22.2878 18.395 22.3843 18.498 22.4551 18.543C22.8218 18.9097 23.2079 19.2443 23.5682 19.6111C23.9349 19.9778 24.321 20.2931 24.7328 20.6083C24.8293 20.6791 24.9258 20.7306 25.0223 20.8014C25.1188 20.8721 25.2153 20.9493 25.3118 21.0201C25.3826 21.0909 25.4791 21.1424 25.5563 21.2131C25.6271 21.2839 25.7236 21.3611 25.8008 21.4319C25.8716 21.4834 25.9938 21.5284 26.1418 21.5992C26.2641 21.67 26.3606 21.7214 26.3863 21.7922C26.3606 21.8179 26.3155 21.8179 26.2898 21.7922H26.1676C25.9231 21.7922 25.685 21.7922 25.4405 21.7665C25.196 21.7407 24.958 21.7407 24.7135 21.7407C24.6427 21.7407 24.5462 21.7407 24.469 21.7665C24.3982 21.7922 24.3017 21.8179 24.2245 21.8179C24.128 21.8179 24.0315 21.8179 23.9349 21.7922C23.8384 21.7665 23.7419 21.7665 23.6454 21.7665C23.5746 21.7665 23.5232 21.7665 23.4781 21.7922C23.4331 21.8179 23.3816 21.8179 23.3108 21.8179C23.1435 21.8179 22.9441 21.7922 22.7768 21.7665C22.6095 21.7407 22.4101 21.7407 22.2428 21.7407C22.1913 21.7407 22.1463 21.7407 22.1205 21.7665C22.0498 21.7665 21.9983 21.7407 21.9725 21.715C21.9468 21.6893 21.9211 21.6442 21.9211 21.5477V20.8914C21.9211 20.4539 21.8696 20.0936 21.7731 19.8234C21.6766 19.5596 21.3613 19.4373 20.853 19.4373C20.7822 19.4373 20.66 19.4373 20.467 19.4631C20.2482 19.4888 20.1517 19.5338 20.1517 19.6561C20.1517 19.8491 20.1517 20.0421 20.1774 20.2416V20.8464C20.1774 20.9686 20.1774 21.0909 20.1517 21.1874C20.126 21.3097 20.1002 21.4319 20.1002 21.5541C20.1002 21.5799 20.1002 21.6249 20.126 21.6507C20.1517 21.7021 20.1517 21.7472 20.1517 21.7729H17.726C17.6553 21.7729 17.6038 21.7729 17.5588 21.7986C17.4944 21.8179 17.4494 21.8244 17.3915 21.8244C17.5459 21.6957 17.6939 21.5799 17.7968 21.4898ZM16.3556 23.8318V23.6645C16.3298 23.6131 16.3298 23.568 16.3298 23.4972C16.3298 23.4715 16.3298 23.4715 16.3556 23.4458C16.3556 23.42 16.3813 23.3943 16.4521 23.375C16.5229 23.3493 16.6001 23.3493 16.6709 23.3235H16.9154C16.9861 23.3235 17.0119 23.3235 17.0119 23.3235H18.0542C18.125 23.3235 18.2215 23.3235 18.2987 23.2978C18.3695 23.272 18.4467 23.272 18.5174 23.272C18.614 23.272 18.7105 23.272 18.807 23.2978C18.9035 23.3235 19 23.3235 19.1222 23.3235H21.3549C21.4256 23.3235 21.5029 23.3235 21.5479 23.2978C21.5994 23.272 21.6701 23.272 21.7409 23.272C21.9082 23.272 22.1077 23.272 22.2749 23.2978C22.4422 23.3235 22.6417 23.3235 22.809 23.3235C22.9763 23.3235 23.1757 23.3235 23.343 23.2978C23.5103 23.272 23.7097 23.272 23.877 23.272H24.2438C24.4368 23.272 24.6298 23.272 24.8486 23.2978C25.0416 23.3235 25.2153 23.3493 25.3826 23.3686C25.5499 23.42 25.6271 23.4908 25.6271 23.5873V23.7546C25.6014 23.8254 25.6014 23.9026 25.6014 23.9734C25.6014 24.0956 25.6271 24.2179 25.6528 24.3401C25.6786 24.4624 25.6786 24.5846 25.6786 24.7069C25.6786 24.8291 25.6786 24.9256 25.6528 24.9964C25.6271 24.9964 25.6271 24.9964 25.6271 24.9964C25.6014 25.0221 25.6014 25.0221 25.5756 25.0221C25.3118 25.0221 25.0159 25.0221 24.7263 25.0479C24.4368 25.0736 24.1408 25.0736 23.877 25.0736C23.4653 25.0736 23.0277 25.0736 22.616 25.0479C22.2042 25.0221 21.7667 25.0221 21.3549 25.0221C21.1876 25.0221 20.9881 25.0221 20.8208 25.0479C20.6536 25.0672 20.4605 25.0929 20.2868 25.0929C20.216 25.0929 20.1388 25.0929 20.0938 25.0672C20.023 25.0414 19.9458 25.0414 19.875 25.0414C19.8043 25.0414 19.7528 25.0414 19.7077 25.0672C19.6627 25.0929 19.6112 25.0929 19.5598 25.0929C19.2445 25.0929 18.955 25.0672 18.6397 25.0414C18.3244 25.0157 18.0349 25.0157 17.7196 25.0157C17.5523 25.0157 17.3529 25.0157 17.1856 25.0414C17.0119 25.0672 16.8188 25.0929 16.6516 25.0929C16.4843 25.0929 16.3813 25.0672 16.3813 24.9964C16.3556 24.9256 16.3556 24.8291 16.3556 24.6554V24.5074C16.3298 24.4817 16.3298 24.4366 16.3298 24.3851C16.3298 24.3144 16.3298 24.2629 16.3556 24.1921C16.3813 24.1406 16.3813 24.0956 16.3813 24.0248C16.3813 23.9283 16.3813 23.8575 16.3556 23.8318ZM21.3549 28.3678C21.2326 28.3421 21.1104 28.3421 20.9881 28.3421C20.8659 28.3421 20.7436 28.3421 20.6471 28.3678C20.5249 28.3936 20.4026 28.4193 20.2804 28.4193C20.2096 28.4193 20.1324 28.3936 20.0874 28.3678C20.0166 28.3421 19.9651 28.3421 19.8943 28.3421H18.466C18.4145 28.3421 18.3695 28.3421 18.318 28.3678C18.2665 28.3936 18.2215 28.4193 18.1507 28.4193H17.0376C16.9668 28.4193 16.8703 28.4193 16.7931 28.3936C16.7223 28.3678 16.6258 28.3678 16.5486 28.3678H16.4778C16.4521 28.3936 16.4264 28.3421 16.4071 28.2713C16.3813 28.2006 16.3556 28.1748 16.3556 28.1491V27.763C16.3298 27.6408 16.3298 27.4992 16.3298 27.377C16.3298 26.9395 16.4264 26.695 16.5936 26.6242C16.7609 26.5534 17.0312 26.5277 17.3915 26.5277C17.4622 26.5277 17.5137 26.502 17.5588 26.4762C17.6102 26.4505 17.6553 26.4505 17.726 26.4505H19.1608C19.4761 26.4762 19.7463 26.4762 20.0101 26.4762C20.2546 26.502 20.3962 26.502 20.4219 26.5277H20.5892C20.6407 26.5277 20.6857 26.5277 20.7565 26.502H20.9045C21.2712 26.502 21.6573 26.502 22.0176 26.5277C22.3843 26.5534 22.7704 26.5534 23.1307 26.5534C23.2529 26.5534 23.3752 26.5277 23.4974 26.502C23.5939 26.4762 23.7162 26.4762 23.8384 26.4762C23.9607 26.4762 24.1087 26.4762 24.2245 26.502C24.3467 26.5277 24.4883 26.5534 24.6105 26.5534C24.6363 26.5534 24.662 26.5534 24.6813 26.5277C24.707 26.5277 24.707 26.5277 24.7328 26.5277C24.7585 26.502 24.8035 26.502 24.8807 26.502C25.2475 26.502 25.4662 26.5727 25.537 26.695C25.6078 26.843 25.6335 27.081 25.6335 27.3963C25.6335 27.6601 25.5821 27.8789 25.4663 28.0011C25.344 28.1491 25.196 28.2456 25.0287 28.2906C24.8357 28.3614 24.6427 28.3871 24.4239 28.3871C24.2052 28.4129 23.9864 28.4129 23.7934 28.4129H23.4781C23.3559 28.4386 23.2594 28.4386 23.1371 28.4386C23.0406 28.4386 22.9441 28.4129 22.8476 28.3871C22.7511 28.3614 22.6546 28.3614 22.558 28.3614C22.4101 28.3614 22.2685 28.3614 22.1463 28.3871C21.9983 28.4129 21.8567 28.4129 21.7087 28.4129C21.5994 28.4193 21.4771 28.3936 21.3549 28.3678ZM24.5076 32.0095C24.3145 32.1318 24.1408 32.2283 23.9993 32.2991C23.9285 32.2733 23.8063 32.1768 23.6325 32.0353C23.4653 31.8873 23.2658 31.72 23.0985 31.527C22.9055 31.3597 22.7318 31.1602 22.5902 30.9929C22.4229 30.8257 22.3264 30.7034 22.2492 30.6262C22.1784 30.5554 22.1012 30.4589 22.0562 30.3817C22.0047 30.3109 21.9597 30.2144 21.8889 30.1372C21.7924 30.0407 21.7409 29.9699 21.7216 29.9185C21.7924 29.8927 21.8889 29.8927 22.0111 29.8927C22.0819 29.8927 22.1334 29.8927 22.1784 29.9185C22.2042 29.9442 22.2492 29.9442 22.3264 29.9442H24.4883C24.8293 29.9442 25.1703 29.9442 25.5049 29.9185C25.8201 29.8927 26.1611 29.8927 26.5021 29.8927C26.5729 29.8927 26.6694 29.8927 26.7659 29.9185C26.8367 29.9442 26.9332 29.9442 27.0104 29.9442H27.1327C27.1069 29.9699 27.0104 30.0407 26.8882 30.1372C26.7659 30.2595 26.6694 30.3045 26.6437 30.3045C26.5729 30.3753 26.4764 30.4718 26.3992 30.5683C26.3284 30.6648 26.2319 30.7356 26.1547 30.7871C25.9874 30.8836 25.8137 31.0058 25.6464 31.1538C25.4534 31.3018 25.2604 31.4433 25.0609 31.5913C24.8743 31.7393 24.6813 31.8873 24.5076 32.0095Z" fill="#D24020"/>
<path d="M20.9754 32.7559C20.8789 32.7559 20.731 32.8074 20.5637 32.8781C20.3964 32.9746 20.1969 33.0712 20.0039 33.1934C19.8109 33.3156 19.6372 33.4572 19.4699 33.5794C19.3026 33.7017 19.2061 33.7982 19.1546 33.869C19.0838 33.9398 19.0066 34.0363 18.9616 34.1135C18.9101 34.1842 18.8393 34.2808 18.7686 34.358C18.6463 34.4802 18.4983 34.6025 18.3568 34.6732C18.2088 34.744 18.0865 34.8405 17.9707 34.9628C17.9 35.0335 17.8227 35.1108 17.752 35.1815C17.6812 35.2523 17.5847 35.3295 17.5075 35.4003C17.2437 35.5676 16.9734 35.7413 16.7547 35.8828C16.5102 36.0308 16.2464 36.1531 15.9569 36.2689C15.8861 36.2946 15.7638 36.3397 15.5901 36.4169C15.4164 36.4941 15.3006 36.5134 15.2234 36.5134C15.0561 36.5134 14.8373 36.5134 14.5928 36.4876C14.3483 36.4876 14.1103 36.4619 13.8915 36.3911C13.6728 36.3397 13.4797 36.2432 13.306 36.1209C13.1387 35.9987 13.0615 35.8056 13.0615 35.5869C13.0615 35.3424 13.1323 35.1043 13.2803 34.8598C13.4283 34.6153 13.647 34.4931 13.9108 34.4931C14.0781 34.4931 14.2518 34.5188 14.4191 34.5639C14.5671 34.6153 14.7344 34.6346 14.9017 34.6346C15.069 34.6346 15.2684 34.6089 15.5065 34.5381C15.7445 34.4673 15.944 34.3901 16.0662 34.3194C16.1885 34.2486 16.3107 34.1263 16.4072 34.0041C16.478 33.8818 16.5745 33.7853 16.6968 33.6888C16.9155 33.4958 17.16 33.3028 17.3788 33.084C17.5976 32.891 17.7906 32.698 18.0093 32.4792C18.0801 32.4084 18.1766 32.3312 18.2538 32.3119C18.3246 32.2862 18.4018 32.2412 18.4211 32.1897C18.4919 32.1189 18.5691 32.0417 18.6399 31.9709C18.6913 31.9001 18.7621 31.8229 18.8329 31.7522C18.9551 31.6299 19.0967 31.5334 19.3155 31.4369C19.5085 31.3661 19.7272 31.2889 19.946 31.2181C20.1648 31.1474 20.3835 31.0959 20.6023 31.0702C20.821 31.0444 20.9883 31.0187 21.1363 31.0187C21.9341 31.0187 22.6161 31.1667 23.1759 31.4562C23.7099 31.7457 24.2182 32.209 24.7265 32.8138C24.8488 32.9811 24.971 33.1291 25.0675 33.2963C25.1383 33.4636 25.2606 33.6116 25.3828 33.7789C25.4793 33.9269 25.6016 34.0684 25.7238 34.2164C25.8461 34.3644 25.9683 34.4866 26.0905 34.6025C26.2128 34.699 26.335 34.8212 26.4316 34.9435C26.5538 35.1108 26.6954 35.3102 26.8176 35.4775C26.9398 35.6705 27.0621 35.8442 27.2036 36.0115C27.4224 36.2303 27.6412 36.449 27.8857 36.6163C28.1302 36.8094 28.3682 37.0024 28.587 37.1954C28.8572 37.4399 29.1467 37.6587 29.4105 37.8774C29.6743 38.0962 29.9703 38.2892 30.2856 38.4822C30.4078 38.553 30.5301 38.6045 30.6523 38.6045C30.7746 38.6302 30.9161 38.6559 31.0384 38.7267C31.3279 38.8747 31.6689 38.9969 32.0549 39.0677C32.4217 39.1385 32.782 39.2157 33.0973 39.235C33.2646 39.2607 33.464 39.2865 33.6313 39.3058C33.7986 39.3315 33.998 39.3573 34.1653 39.3573C34.2361 39.3573 34.3133 39.3573 34.3841 39.3315C34.4356 39.3315 34.5063 39.3315 34.5771 39.3315C34.6286 39.3315 34.6736 39.3315 34.7444 39.3315C34.7959 39.3315 34.8409 39.3573 34.8666 39.4023C34.9374 39.4538 34.9889 39.5696 34.9889 39.769C34.9632 39.9621 34.9632 40.11 34.9889 40.1808C35.0146 40.2066 35.0146 40.2516 35.0404 40.2773C35.0661 40.3288 35.0661 40.3738 35.0661 40.3996C35.0661 40.4704 35.0404 40.5476 35.0146 40.6183C34.9889 40.6891 34.9439 40.7856 34.9181 40.8628C34.7959 41.1524 34.6286 41.3003 34.4356 41.3261C34.2425 41.3518 33.998 41.3776 33.7342 41.3776C33.5155 41.3776 33.2967 41.3261 33.078 41.2296C32.8592 41.1588 32.6662 41.1073 32.5182 41.1073C32.4925 41.1331 32.4474 41.1588 32.3702 41.1331C32.2994 41.1331 32.248 41.1331 32.2222 41.1331C32.1708 41.1331 32.0742 41.1073 31.907 41.0623C31.7397 41.0365 31.5402 40.9915 31.3472 40.94C31.1542 40.8886 30.9805 40.8435 30.8132 40.7921C30.6459 40.7406 30.5236 40.7213 30.4722 40.6955C30.4014 40.6698 30.3049 40.6248 30.2277 40.5476C30.1569 40.4768 30.0604 40.4253 29.9574 40.3996C29.8352 40.3738 29.6936 40.3288 29.4942 40.2516C29.2754 40.2001 29.1532 40.1293 29.0824 40.0328C28.9151 39.9363 28.7671 39.8398 28.5998 39.7626C28.4326 39.6918 28.2846 39.5953 28.1366 39.4731C27.8213 39.2543 27.5318 39.0098 27.2616 38.7717C26.972 38.5273 26.676 38.2635 26.4123 37.9932C26.3415 37.9225 26.29 37.8452 26.245 37.7745C26.1935 37.7037 26.1485 37.6522 26.0777 37.5814C25.6659 37.1697 25.2799 36.6807 24.8874 36.1273C24.8359 36.0566 24.8166 35.9794 24.7909 35.9086C24.7651 35.8378 24.7394 35.7606 24.6686 35.6898C24.5464 35.5225 24.3533 35.278 24.1346 34.9628C23.9158 34.6732 23.6713 34.3773 23.4333 34.062C23.163 33.7725 22.925 33.5022 22.6547 33.2642C22.3845 33.0454 22.1722 32.8974 21.9727 32.8267C21.7282 32.7559 21.4902 32.7301 21.2457 32.7301H20.9754V32.7559ZM30.337 36.8158C30.2663 36.8673 30.1891 36.8866 30.1183 36.8866C30.0475 36.9123 29.951 36.9123 29.8481 36.8866C29.7515 36.8866 29.6808 36.8866 29.6036 36.8866C29.5263 36.8866 29.4556 36.8866 29.3848 36.9123C29.314 36.938 29.2368 36.938 29.166 36.938C29.1146 36.938 29.0953 36.8866 29.0695 36.7901C29.0438 36.7193 29.0181 36.6228 29.0181 36.5005C28.9923 36.404 28.9923 36.3075 28.9923 36.211C28.9666 36.1145 28.9666 36.0437 28.9666 36.018C28.9537 35.9858 28.9537 35.915 28.9537 35.8442C28.9537 35.6255 28.9795 35.381 29.0052 35.1429C29.0309 34.9242 29.0567 34.6797 29.0567 34.4609V33.7339C29.0567 33.6824 29.0567 33.6374 29.0309 33.6116C29.0309 33.5601 29.0309 33.5151 29.0309 33.4636C29.0052 33.4379 29.0052 33.3929 29.0052 33.3414C29.0052 33.2449 29.0309 33.1484 29.0567 33.0261C29.0824 32.9039 29.1532 32.8588 29.2754 32.8588C29.3012 32.8588 29.3719 32.8588 29.4942 32.8588C29.5907 32.8846 29.6615 32.8846 29.6872 32.9103C29.7387 32.9103 29.8095 32.9103 29.9317 32.9103C30.0539 32.936 30.1247 32.9103 30.1762 32.8846C30.2019 32.8846 30.247 32.8846 30.3242 32.8846C30.3757 32.9103 30.395 32.936 30.395 33.0068C30.395 33.0325 30.395 33.0776 30.3692 33.1291C30.3435 33.1805 30.3435 33.2256 30.3435 33.2513C30.3177 33.277 30.3177 33.3028 30.3177 33.3736C30.3177 33.5408 30.3435 33.7146 30.3885 33.8818C30.4143 34.0491 30.44 34.2229 30.44 34.3901C30.44 34.6089 30.4143 34.8277 30.3885 35.0207C30.3628 35.2394 30.337 35.4582 30.337 35.677C30.337 35.8249 30.3628 35.9665 30.3885 36.0887C30.4143 36.211 30.44 36.3783 30.44 36.597C30.4336 36.6935 30.4143 36.7643 30.337 36.8158ZM32.0614 36.9316C32.0356 36.9316 32.0099 36.9316 31.9906 36.9059C31.9649 36.9059 31.9391 36.8801 31.9391 36.8351C31.9391 36.8094 31.9391 36.7643 31.9391 36.7386V36.6871C31.9391 36.6163 31.9391 36.5198 31.9649 36.4233C31.9906 36.3268 31.9906 36.2303 31.9906 36.1531C31.9906 35.9601 31.9649 35.767 31.9391 35.574C31.9134 35.381 31.8877 35.188 31.8877 34.9885C31.8877 34.8663 31.9134 34.7247 31.9391 34.6025C31.9649 34.4802 31.9906 34.358 31.9906 34.2357V33.2642C31.9906 33.0969 32.0421 33.0004 32.1386 32.9489C32.2351 32.9232 32.3573 32.8974 32.4796 32.8974H33.1616C33.2839 32.8974 33.3546 32.9232 33.3289 32.9682C33.3032 33.039 33.3032 33.1162 33.3032 33.187C33.3032 33.3543 33.3289 33.5022 33.3546 33.6502C33.3804 33.7982 33.3804 33.9398 33.3804 34.1135C33.3804 34.1842 33.3804 34.2808 33.3804 34.358C33.3546 34.4545 33.3546 34.551 33.3546 34.6282C33.3546 34.7054 33.3804 34.7762 33.4061 34.8212C33.4318 34.892 33.4318 34.9692 33.4318 35.04C33.4318 35.1365 33.4318 35.233 33.4061 35.3038C33.3804 35.4003 33.3804 35.4968 33.3804 35.5933C33.3804 35.7156 33.3804 35.8635 33.4061 36.0051C33.4061 36.1531 33.4061 36.2946 33.4061 36.4169V36.6356C33.4061 36.6871 33.3804 36.7321 33.3096 36.7579C33.2388 36.7836 33.1423 36.8094 33.0651 36.8287C32.9686 36.8544 32.8721 36.8801 32.7949 36.8994C32.6984 36.9252 32.6276 36.9252 32.6018 36.9252H32.1386C32.1129 36.9316 32.0871 36.9316 32.0614 36.9316Z" fill="#D24020"/>
<path d="M36.9387 30.8193C36.9129 30.845 36.8421 30.845 36.7456 30.845C36.5783 30.845 36.4046 30.845 36.2373 30.8193C36.0701 30.7935 35.8963 30.7935 35.729 30.7935C35.5811 30.7935 35.4395 30.7935 35.3173 30.8193C35.1693 30.845 35.0277 30.845 34.8797 30.845C34.8283 30.845 34.809 30.845 34.7832 30.8193C34.7832 30.3818 34.7125 29.9442 34.5645 29.5325C34.3972 29.1207 34.1977 28.7089 33.979 28.3421C33.8567 28.1234 33.7152 27.9304 33.5415 27.7566C33.3742 27.5894 33.1747 27.3899 33.0074 27.2226C32.8401 27.0553 32.6407 26.8559 32.4734 26.6886C32.2804 26.5213 32.0874 26.3476 31.8686 26.1803H31.7463C31.5533 25.9873 31.3346 25.8136 31.0901 25.6463C30.8456 25.4983 30.6075 25.3567 30.3888 25.2087C30.2215 25.1122 30.0735 25.0157 29.9512 24.8935C29.829 24.7712 29.681 24.6747 29.5137 24.5782C29.2692 24.4302 29.0312 24.2629 28.7867 24.0699C28.5229 23.8769 28.2784 23.6581 28.0596 23.4394C27.8151 23.2206 27.6221 22.9761 27.4548 22.7123C27.2875 22.4421 27.1653 22.1783 27.0881 21.8888C27.0623 21.818 27.0366 21.7215 27.0173 21.5992C26.9916 21.477 26.9658 21.3805 26.9658 21.3097C26.9658 21.0909 26.9916 20.8722 27.0366 20.6534C27.0881 20.4604 27.1074 20.2674 27.1331 20.0486V19.7333C27.1331 19.6819 27.1588 19.6111 27.2039 19.5146C27.2489 19.4181 27.3004 19.3216 27.3712 19.1993C27.4419 19.1028 27.4934 19.0063 27.5642 18.9291C27.635 18.8583 27.6607 18.7811 27.6864 18.7618C27.7122 18.7103 27.7572 18.6653 27.8087 18.6138C27.8602 18.5881 27.9052 18.543 27.9309 18.4916C28.2977 17.9318 28.7288 17.3785 29.2178 16.793C29.7003 16.2332 30.2601 15.7957 30.8649 15.4804C30.9357 15.4804 31.0579 15.4096 31.2059 15.2617C31.3539 15.1137 31.4504 15.0172 31.4954 14.9721C31.5662 14.9013 31.6627 14.8048 31.7592 14.7083C31.83 14.6375 31.9265 14.541 32.0294 14.4638C32.1002 14.4124 32.1967 14.3416 32.3705 14.2193C32.5377 14.1228 32.6857 14.0006 32.853 13.8783C33.0203 13.7561 33.1683 13.6596 33.2905 13.5373C33.4128 13.4151 33.4836 13.3443 33.4836 13.2735C33.4836 13.2027 33.4578 13.1255 33.387 13.0548C33.3163 12.984 33.2648 12.9325 33.194 12.8875C33.0975 12.8167 33.001 12.7202 32.9302 12.643C32.8337 12.5722 32.7372 12.495 32.66 12.3985C32.5892 12.302 32.4927 12.154 32.3962 11.9867C32.2739 11.8194 32.1774 11.6457 32.0809 11.4527C31.9587 11.2596 31.8879 11.0666 31.8171 10.8736C31.7463 10.7063 31.6949 10.5583 31.6949 10.4361C31.6949 10.3653 31.7463 10.2881 31.8171 10.2431C31.8429 10.2173 31.9136 10.1916 32.0359 10.1466C32.1581 10.1208 32.2804 10.0758 32.4219 10.0243C32.5442 9.97283 32.6922 9.92779 32.808 9.90206C32.9302 9.87632 33.001 9.85059 33.0267 9.85059C33.0975 9.85059 33.1747 9.90206 33.194 9.99857C33.2198 10.1208 33.2455 10.1916 33.2648 10.2624C33.4128 10.6291 33.5801 10.9637 33.7731 11.2597C33.9661 11.5556 34.2556 11.7679 34.6481 11.9159C34.7704 11.9674 34.9184 12.0124 35.0342 12.0382C35.1564 12.0896 35.298 12.1089 35.4202 12.1089C35.5425 12.1089 35.6647 12.0832 35.787 12.0124C35.9092 11.961 36.0314 11.9417 36.1537 11.9417C36.2502 11.9417 36.3467 11.9931 36.4432 12.0639C36.5397 12.1347 36.6363 12.2312 36.7328 12.3341C36.8035 12.4564 36.8807 12.5529 36.9258 12.6751C36.9773 12.7974 36.9966 12.9196 36.9966 12.9904C36.9966 13.1384 36.9451 13.28 36.8293 13.4022C36.707 13.5502 36.5655 13.666 36.3918 13.7882C36.2245 13.9105 36.0765 14.007 35.9092 14.1035C35.7419 14.2258 35.5939 14.2965 35.4717 14.3673C35.3494 14.4381 35.2787 14.5153 35.2272 14.5861C35.1564 14.6568 35.0599 14.7083 34.9377 14.7791C34.6739 14.9013 34.4294 15.0429 34.1591 15.1651C33.8953 15.3131 33.6251 15.4804 33.4063 15.6477C33.3356 15.6992 33.2584 15.7699 33.1876 15.8407C33.0911 15.9115 32.9946 16.008 32.9238 16.0852C32.8273 16.1817 32.7308 16.2525 32.6536 16.3297C32.5763 16.4069 32.5056 16.452 32.4605 16.4777C32.3898 16.5292 32.3125 16.5742 32.2418 16.5999C32.171 16.6257 32.0745 16.6965 31.9973 16.7672C31.9201 16.838 31.875 16.8895 31.83 16.9603C31.7785 17.031 31.7335 17.1082 31.6627 17.179C31.5405 17.3013 31.4182 17.372 31.2767 17.4235C31.1287 17.4943 31.0129 17.5715 30.8906 17.6937C30.7233 17.861 30.5046 18.1055 30.2601 18.3951C30.0156 18.6846 29.7968 18.9999 29.5781 19.3409C29.3593 19.6819 29.1663 20.0229 29.0183 20.3574C28.8703 20.6985 28.7995 20.988 28.7995 21.2582L28.8253 21.3547C28.9475 21.6185 29.1148 21.8888 29.3336 22.1333C29.5523 22.3778 29.7711 22.5965 30.0156 22.7895C30.1378 22.886 30.2601 22.9826 30.3823 23.1048C30.5046 23.227 30.6268 23.3493 30.7684 23.4201C30.8906 23.4908 31.0386 23.5681 31.2059 23.6388C31.3539 23.7096 31.4954 23.7868 31.6177 23.8576C31.7399 23.9284 31.8815 24.0249 32.0037 24.1214C32.126 24.2179 32.2482 24.2887 32.3898 24.3401C32.4605 24.3659 32.512 24.3916 32.557 24.4109C32.6085 24.4367 32.6536 24.4624 32.7243 24.4817C32.9431 24.6039 33.1618 24.7712 33.3291 24.99C33.4964 25.2087 33.6959 25.4018 33.9082 25.524C34.127 25.6463 34.32 25.7878 34.5387 25.9101C34.7318 26.0323 34.9055 26.1996 35.0728 26.3926C35.1435 26.4891 35.2208 26.5856 35.2915 26.7079C35.343 26.8301 35.4138 26.9266 35.4846 27.0489C35.6325 27.2677 35.7483 27.4607 35.8706 27.6344C35.9671 27.8274 36.0894 28.0462 36.2116 28.2649C36.2824 28.3872 36.3596 28.5545 36.4561 28.7475C36.5269 28.9663 36.6234 29.185 36.7006 29.4038C36.7714 29.6225 36.8228 29.8413 36.8936 30.06C36.9451 30.2788 36.9644 30.4461 36.9644 30.5683C36.9644 30.6906 36.9644 30.7935 36.9387 30.8193ZM37.4212 19.2186C37.3504 19.2186 37.299 19.2186 37.2732 19.1929C37.1059 19.1929 36.9837 19.1671 36.958 19.0964C36.9065 19.0256 36.8872 18.9033 36.8872 18.7296C36.9129 18.7039 36.9129 18.6782 36.9129 18.6331C36.9387 18.5623 36.9644 18.5109 36.9644 18.4658C36.9901 18.4401 36.9901 18.3951 37.0159 18.3693C37.0159 18.3436 37.0159 18.3178 37.0416 18.2985C37.0416 18.2471 37.0416 18.202 37.0673 18.1763C37.0416 17.9575 36.9966 17.7645 36.9708 17.5458C36.9451 17.3527 36.9194 17.1597 36.9194 16.9409C36.9194 16.793 36.9194 16.6514 36.9451 16.5034C36.9708 16.3812 36.9708 16.2332 36.9708 16.0916C36.9708 15.9951 36.9708 15.8986 36.9708 15.8021C36.9451 15.7313 36.9451 15.6348 36.9451 15.5576C36.9451 15.3903 36.9966 15.2874 37.1124 15.2681C37.2346 15.2423 37.3569 15.2424 37.4791 15.2424H37.6721C37.9874 15.2424 38.1804 15.3131 38.2576 15.4868C38.3091 15.6541 38.3284 15.8986 38.3284 16.1689V17.1404L38.2576 17.2369C38.2834 17.3592 38.3091 17.5007 38.3091 17.623C38.3091 17.7709 38.3091 17.9125 38.3091 18.0347V18.8133C38.3091 18.839 38.3091 18.9098 38.2834 18.9806C38.2576 19.0771 38.2126 19.1285 38.1869 19.1478C38.1611 19.1736 38.1354 19.1993 38.0904 19.1993C38.0389 19.225 37.9938 19.225 37.9681 19.225H37.4212V19.2186ZM40.6769 19.2701C40.6061 19.2701 40.5289 19.2701 40.4581 19.2958C40.3873 19.3216 40.3101 19.3216 40.2393 19.3216C40.0914 19.3216 40.0206 19.2701 39.9948 19.1993C39.9691 19.1285 39.9691 19.032 39.9691 18.9098C39.9691 18.691 39.9691 18.498 39.9948 18.2792C39.9948 18.0862 39.9948 17.8932 39.9948 17.6744C39.9948 17.5522 39.9948 17.4106 40.0206 17.2884C40.0463 17.1661 40.0463 17.0182 40.0463 16.9023C40.0463 16.7544 40.0463 16.6128 40.0206 16.4906C39.9948 16.3683 39.9691 16.2268 39.9691 16.0788C39.9691 16.0273 39.9691 15.9565 39.9948 15.8858C39.9948 15.815 39.9948 15.7185 40.0206 15.6413C40.0463 15.5705 40.0721 15.4933 40.0914 15.4225C40.1171 15.3517 40.1621 15.326 40.2393 15.326C40.2651 15.326 40.3101 15.326 40.3616 15.326C40.3873 15.3517 40.4324 15.3517 40.4581 15.3517C40.4838 15.3775 40.5289 15.3775 40.5803 15.3775H40.8248C40.8506 15.3775 40.8956 15.3775 40.9471 15.3517C40.9728 15.3517 41.0179 15.3517 41.0436 15.3517C41.1401 15.3517 41.2109 15.4225 41.2881 15.5705C41.3396 15.7185 41.3846 15.8858 41.4103 16.0788C41.4361 16.2718 41.4361 16.4648 41.4361 16.6385C41.4361 16.8316 41.4361 16.9796 41.4361 17.0503V17.8289C41.4361 17.9254 41.4103 17.9961 41.3846 18.0733C41.3331 18.1441 41.3138 18.2406 41.3138 18.3371C41.3138 18.4594 41.3396 18.5559 41.3653 18.6524C41.391 18.7489 41.4168 18.8454 41.4168 18.9677C41.4168 19.0899 41.4168 19.1607 41.4168 19.2122C41.4168 19.2637 41.346 19.283 41.2238 19.283H40.6769V19.2701Z" fill="#D24020"/>
<path d="M68.7995 36.7446C68.7995 36.9569 68.7608 37.1435 68.6772 37.3044C68.6 37.4652 68.4906 37.6003 68.3555 37.7097C68.2204 37.8191 68.0595 37.8963 67.8794 37.9542C67.6992 38.0121 67.4998 38.0378 67.2939 38.0378C67.1523 38.0378 67.0236 38.025 66.9014 38.0057C66.7792 37.9799 66.6762 37.9542 66.5797 37.922C66.4896 37.8899 66.4124 37.8577 66.3481 37.8191C66.2837 37.7805 66.2387 37.7547 66.213 37.7226C66.1872 37.6968 66.1679 37.6582 66.155 37.6068C66.1422 37.5553 66.1357 37.4845 66.1357 37.388C66.1357 37.3237 66.1357 37.2658 66.1422 37.2272C66.1486 37.1821 66.155 37.1499 66.1615 37.1178C66.1679 37.0856 66.1808 37.0727 66.2001 37.0599C66.2194 37.047 66.2323 37.0406 66.258 37.0406C66.2837 37.0406 66.3288 37.0599 66.3802 37.092C66.4317 37.1242 66.5025 37.1628 66.5861 37.2079C66.6698 37.2465 66.7727 37.2851 66.8885 37.3237C67.0043 37.3623 67.1395 37.3751 67.2939 37.3751C67.3968 37.3751 67.4869 37.3623 67.5641 37.3365C67.6413 37.3108 67.7121 37.2786 67.7636 37.2336C67.8215 37.1885 67.8601 37.1371 67.8922 37.0727C67.918 37.0084 67.9373 36.9376 67.9373 36.854C67.9373 36.7639 67.9116 36.6803 67.8601 36.6159C67.8086 36.5516 67.7443 36.4937 67.6606 36.4422C67.5834 36.3907 67.4869 36.3457 67.384 36.3006C67.281 36.2556 67.1781 36.2106 67.0687 36.1591C66.9593 36.1076 66.8564 36.0497 66.7534 35.9854C66.6505 35.921 66.5604 35.8438 66.4767 35.7537C66.3995 35.6637 66.3288 35.5607 66.2837 35.4385C66.2387 35.3162 66.2065 35.1682 66.2065 35.001C66.2065 34.8079 66.2451 34.6342 66.3159 34.4862C66.3867 34.3382 66.4832 34.216 66.6054 34.1195C66.7277 34.023 66.8757 33.9522 67.0365 33.9007C67.1974 33.8493 67.3775 33.83 67.5641 33.83C67.6606 33.83 67.7571 33.8364 67.8536 33.8493C67.9502 33.8621 68.0402 33.8814 68.1239 33.9072C68.2075 33.9329 68.2847 33.9586 68.3491 33.9908C68.4134 34.023 68.4584 34.0487 68.4777 34.068C68.4971 34.0873 68.5099 34.1066 68.5228 34.1195C68.5292 34.1324 68.5357 34.1517 68.5421 34.1774C68.5485 34.2031 68.5485 34.2289 68.555 34.2675C68.555 34.3061 68.555 34.3511 68.555 34.4026C68.555 34.4605 68.555 34.512 68.5485 34.557C68.5421 34.602 68.5421 34.6342 68.5357 34.66C68.5292 34.6857 68.5164 34.705 68.5035 34.7179C68.4906 34.7307 68.4713 34.7372 68.452 34.7372C68.4263 34.7372 68.3941 34.7243 68.3426 34.6921C68.2912 34.66 68.2333 34.6278 68.156 34.5956C68.0853 34.5634 67.9952 34.5313 67.8987 34.4991C67.8022 34.4734 67.6992 34.4541 67.5834 34.4541C67.4933 34.4541 67.4161 34.4669 67.3453 34.4862C67.281 34.5055 67.2231 34.5377 67.1781 34.5763C67.133 34.6149 67.1009 34.66 67.0751 34.7179C67.0494 34.7758 67.0429 34.8272 67.0429 34.8916C67.0429 34.9817 67.0687 35.0589 67.1137 35.1232C67.1652 35.1875 67.2295 35.2455 67.3132 35.2969C67.3968 35.3484 67.4869 35.3934 67.5963 35.4385C67.6992 35.4835 67.8086 35.5286 67.918 35.58C68.0274 35.6315 68.1303 35.6894 68.2397 35.7537C68.3426 35.8181 68.4391 35.8953 68.5164 35.9854C68.5936 36.0755 68.6643 36.1784 68.7158 36.3006C68.7673 36.4229 68.7995 36.5837 68.7995 36.7446Z" fill="white"/>
<path d="M77.338 36.4491C77.338 36.7 77.2994 36.9188 77.2286 37.1182C77.1578 37.3177 77.0484 37.4785 76.9069 37.6201C76.7653 37.7552 76.5852 37.8581 76.3793 37.9289C76.167 37.9997 75.9289 38.0383 75.6587 38.0383C75.4013 38.0383 75.1761 38.0061 74.9702 37.9418C74.7643 37.8774 74.597 37.7809 74.4555 37.6522C74.3139 37.5236 74.211 37.3627 74.1338 37.1697C74.0566 36.9767 74.0244 36.7515 74.0244 36.4877V34.017C74.0244 33.9977 74.0308 33.9784 74.0437 33.9591C74.0566 33.9398 74.0759 33.9269 74.1081 33.9205C74.1402 33.9076 74.1853 33.9012 74.2367 33.8947C74.2882 33.8883 74.359 33.8883 74.4362 33.8883C74.5134 33.8883 74.5842 33.8883 74.6357 33.8947C74.6871 33.9012 74.7322 33.9076 74.7643 33.9205C74.7965 33.9333 74.8158 33.9462 74.8287 33.9591C74.8415 33.9784 74.848 33.9977 74.848 34.017V36.4169C74.848 36.5778 74.8673 36.7193 74.9059 36.8351C74.9445 36.9509 75.0024 37.0539 75.0796 37.1311C75.1568 37.2083 75.2405 37.2662 75.3498 37.3048C75.4592 37.3434 75.5686 37.3627 75.6973 37.3627C75.826 37.3627 75.9418 37.3434 76.0447 37.3048C76.1477 37.2662 76.2313 37.2083 76.3085 37.1311C76.3793 37.0539 76.4372 36.9574 76.4758 36.848C76.5144 36.7386 76.5337 36.6099 76.5337 36.4684V34.0234C76.5337 34.0041 76.5401 33.9848 76.553 33.9655C76.5659 33.9462 76.5852 33.9333 76.6173 33.9269C76.6495 33.9205 76.6881 33.9076 76.746 33.9012C76.8039 33.8947 76.8683 33.8947 76.9455 33.8947C77.0227 33.8947 77.0935 33.8947 77.1385 33.9012C77.19 33.9076 77.2286 33.914 77.2608 33.9269C77.2929 33.9398 77.3122 33.9526 77.3251 33.9655C77.338 33.9784 77.3444 34.0041 77.3444 34.0234V36.4491H77.338Z" fill="white"/>
<path d="M86.0752 34.5317C86.0752 34.5896 86.0752 34.6475 86.0687 34.6861C86.0623 34.7312 86.0559 34.7633 86.0494 34.7891C86.043 34.8148 86.0301 34.8341 86.0173 34.847C86.0044 34.8599 85.9851 34.8599 85.9658 34.8599C85.94 34.8599 85.895 34.8406 85.8307 34.8019C85.7728 34.7633 85.6891 34.7247 85.5862 34.6797C85.4832 34.6347 85.3674 34.5961 85.2259 34.5575C85.0843 34.5188 84.9235 34.4995 84.7433 34.4995C84.5439 34.4995 84.3701 34.5317 84.2093 34.6025C84.0484 34.6733 83.9133 34.7698 83.8039 34.892C83.6946 35.0143 83.6045 35.1687 83.5401 35.3424C83.4822 35.5161 83.4501 35.7092 83.4501 35.9215C83.4501 36.1531 83.4822 36.359 83.5401 36.5327C83.6045 36.7064 83.6881 36.8609 83.7975 36.9767C83.9069 37.0989 84.042 37.189 84.1964 37.2469C84.3508 37.3048 84.5246 37.337 84.7111 37.337C84.8012 37.337 84.8977 37.3241 84.9814 37.3048C85.0714 37.2855 85.1551 37.2533 85.2323 37.2083V36.2689H84.4602C84.4216 36.2689 84.3959 36.2432 84.3701 36.1981C84.3508 36.1531 84.338 36.0695 84.338 35.9601C84.338 35.9022 84.338 35.8507 84.3444 35.8121C84.3508 35.7735 84.3573 35.7413 84.3701 35.7156C84.383 35.6898 84.3959 35.677 84.4087 35.6641C84.4216 35.6512 84.4409 35.6448 84.4602 35.6448H85.8307C85.8628 35.6448 85.895 35.6512 85.9207 35.6641C85.9465 35.677 85.9722 35.6898 85.9915 35.7156C86.0108 35.7413 86.0237 35.7671 86.0366 35.7992C86.0494 35.8314 86.0494 35.87 86.0494 35.9086V37.5236C86.0494 37.5879 86.0366 37.6394 86.0173 37.6909C85.998 37.7423 85.9529 37.7745 85.8821 37.8002C85.8114 37.826 85.7277 37.8581 85.6312 37.8839C85.5347 37.9096 85.4253 37.9353 85.3159 37.9611C85.2066 37.9804 85.0972 37.9997 84.9878 38.0061C84.8784 38.0126 84.769 38.019 84.6532 38.019C84.3315 38.019 84.0356 37.9739 83.7846 37.8774C83.5273 37.7809 83.3085 37.6522 83.1348 37.4721C82.9546 37.2984 82.8195 37.0796 82.7294 36.8222C82.6394 36.5649 82.5879 36.2818 82.5879 35.9536C82.5879 35.6191 82.6394 35.3231 82.7359 35.0593C82.8324 34.7955 82.9804 34.5703 83.1605 34.3837C83.3471 34.1971 83.5659 34.0556 83.8297 33.9591C84.0935 33.8626 84.383 33.8111 84.6983 33.8111C84.872 33.8111 85.0328 33.824 85.1808 33.8497C85.3288 33.8754 85.4511 33.9012 85.5604 33.9398C85.6698 33.9719 85.7599 34.0106 85.8307 34.0492C85.9014 34.0878 85.9529 34.1264 85.9787 34.1521C86.0044 34.1843 86.0301 34.2229 86.0366 34.2744C86.043 34.3258 86.0752 34.4223 86.0752 34.5317Z" fill="white"/>
<path d="M94.8184 36.4491C94.8184 36.7 94.7798 36.9188 94.7091 37.1182C94.6383 37.3177 94.5289 37.4785 94.3874 37.6201C94.2458 37.7552 94.0721 37.8581 93.8598 37.9289C93.6474 37.9997 93.4094 38.0383 93.1391 38.0383C92.8818 38.0383 92.6566 38.0061 92.4507 37.9418C92.2448 37.8774 92.0775 37.7809 91.936 37.6522C91.7944 37.5236 91.6915 37.3627 91.6143 37.1697C91.5371 36.9767 91.5049 36.7515 91.5049 36.4877V34.017C91.5049 33.9977 91.5113 33.9784 91.5242 33.9591C91.5371 33.9398 91.5564 33.9269 91.595 33.9205C91.6271 33.9076 91.6722 33.9012 91.7236 33.8947C91.7751 33.8883 91.8459 33.8883 91.9231 33.8883C92.0003 33.8883 92.0711 33.8883 92.1225 33.8947C92.174 33.9012 92.2191 33.9076 92.2512 33.9205C92.2834 33.9333 92.3027 33.9462 92.322 33.9591C92.3349 33.9784 92.3413 33.9977 92.3413 34.017V36.4169C92.3413 36.5778 92.3606 36.7193 92.3992 36.8351C92.4378 36.9509 92.4957 37.0539 92.5729 37.1311C92.6502 37.2083 92.7338 37.2662 92.8432 37.3048C92.9526 37.3434 93.0619 37.3627 93.1906 37.3627C93.3193 37.3627 93.4351 37.3434 93.5381 37.3048C93.641 37.2662 93.7246 37.2083 93.8018 37.1311C93.8726 37.0539 93.9305 36.9574 93.9691 36.848C94.0077 36.7386 94.027 36.6099 94.027 36.4684V34.0234C94.027 34.0041 94.0335 33.9848 94.0463 33.9655C94.0592 33.9462 94.0785 33.9333 94.1107 33.9269C94.1429 33.9205 94.1879 33.9076 94.2394 33.9012C94.2908 33.8947 94.3616 33.8947 94.4388 33.8947C94.516 33.8947 94.5868 33.8947 94.6383 33.9012C94.6898 33.9076 94.7284 33.914 94.7605 33.9269C94.7927 33.9398 94.812 33.9526 94.8249 33.9655C94.8377 33.9784 94.8442 34.0041 94.8442 34.0234V36.4491H94.8184Z" fill="white"/>
<path d="M108.999 34.2358C108.999 34.2937 108.999 34.3452 108.993 34.3902C108.986 34.4352 108.98 34.4674 108.967 34.4931C108.954 34.5189 108.941 34.5382 108.928 34.5511C108.909 34.5639 108.896 34.5704 108.877 34.5704H107.86V37.8453C107.86 37.8646 107.854 37.8839 107.841 37.9032C107.828 37.9225 107.803 37.9354 107.77 37.9418C107.738 37.9483 107.7 37.9611 107.642 37.9676C107.584 37.974 107.519 37.974 107.442 37.974C107.365 37.974 107.294 37.974 107.243 37.9676C107.191 37.9611 107.146 37.9547 107.114 37.9418C107.082 37.9289 107.063 37.9161 107.05 37.9032C107.037 37.8839 107.03 37.8646 107.03 37.8453V34.5704H106.014C105.995 34.5704 105.975 34.5639 105.962 34.5511C105.95 34.5382 105.937 34.5189 105.924 34.4931C105.911 34.4674 105.904 34.4352 105.898 34.3902C105.892 34.3452 105.892 34.2937 105.892 34.2358C105.892 34.1714 105.892 34.12 105.898 34.0749C105.904 34.0299 105.911 33.9977 105.924 33.972C105.937 33.9462 105.95 33.9269 105.962 33.9141C105.975 33.9012 105.995 33.8948 106.014 33.8948H108.877C108.896 33.8948 108.909 33.9012 108.928 33.9141C108.941 33.9269 108.954 33.9462 108.967 33.972C108.98 33.9977 108.986 34.0363 108.993 34.0749C108.999 34.1135 108.999 34.1779 108.999 34.2358Z" fill="white"/>
<path d="M117.069 37.6587C117.095 37.7359 117.108 37.7938 117.114 37.8389C117.121 37.8839 117.114 37.9161 117.089 37.9354C117.063 37.9547 117.024 37.974 116.966 37.974C116.908 37.974 116.825 37.9804 116.722 37.9804C116.612 37.9804 116.535 37.9804 116.471 37.974C116.413 37.974 116.368 37.9675 116.336 37.9547C116.304 37.9418 116.284 37.9289 116.271 37.9161C116.259 37.9032 116.246 37.8775 116.239 37.8517L115.969 37.0346H114.444L114.187 37.8324C114.18 37.8646 114.167 37.8839 114.155 37.9032C114.142 37.9225 114.122 37.9418 114.09 37.9482C114.058 37.9611 114.019 37.9675 113.962 37.974C113.904 37.9804 113.833 37.9804 113.743 37.9804C113.646 37.9804 113.569 37.9804 113.518 37.974C113.466 37.9675 113.428 37.9547 113.402 37.9289C113.376 37.9032 113.376 37.871 113.382 37.826C113.389 37.781 113.402 37.723 113.428 37.6523L114.682 34.0427C114.695 34.0041 114.708 33.9784 114.727 33.9591C114.747 33.9398 114.772 33.9205 114.804 33.9076C114.843 33.8948 114.894 33.8883 114.959 33.8883C115.023 33.8883 115.107 33.8819 115.216 33.8819C115.338 33.8819 115.435 33.8819 115.512 33.8883C115.589 33.8948 115.641 33.9012 115.686 33.9076C115.724 33.9205 115.757 33.9334 115.776 33.9591C115.795 33.9848 115.808 34.0106 115.821 34.0556L117.069 37.6587ZM115.203 34.6733L114.624 36.4041H115.776L115.203 34.6733Z" fill="white"/>
<path d="M125.188 36.745C125.188 36.8866 125.169 37.0217 125.131 37.1375C125.092 37.2533 125.034 37.3563 124.963 37.4464C124.892 37.5364 124.809 37.6136 124.712 37.678C124.616 37.7423 124.506 37.7938 124.391 37.8388C124.275 37.8774 124.146 37.9096 124.017 37.9289C123.882 37.9482 123.734 37.9611 123.573 37.9611H122.493C122.422 37.9611 122.364 37.9418 122.319 37.8967C122.274 37.8581 122.248 37.7874 122.248 37.6973V34.1521C122.248 34.062 122.274 33.9913 122.319 33.9526C122.364 33.914 122.422 33.8883 122.493 33.8883H123.516C123.766 33.8883 123.972 33.9076 124.146 33.9526C124.32 33.9913 124.461 34.0556 124.584 34.1457C124.699 34.2293 124.796 34.3387 124.854 34.4674C124.912 34.5961 124.95 34.7505 124.95 34.9242C124.95 35.0207 124.937 35.1172 124.912 35.2009C124.886 35.2845 124.847 35.3681 124.802 35.4389C124.757 35.5097 124.693 35.574 124.622 35.6255C124.551 35.677 124.474 35.722 124.384 35.7606C124.5 35.7799 124.603 35.8185 124.706 35.87C124.802 35.9215 124.886 35.9923 124.963 36.0695C125.034 36.1531 125.092 36.2496 125.137 36.359C125.182 36.4684 125.188 36.6035 125.188 36.745ZM124.12 35.0336C124.12 34.9499 124.108 34.8792 124.082 34.8148C124.056 34.7505 124.017 34.699 123.966 34.654C123.914 34.6089 123.85 34.5768 123.779 34.5575C123.702 34.5317 123.599 34.5253 123.471 34.5253H123.052V35.5805H123.516C123.638 35.5805 123.728 35.5676 123.799 35.5354C123.869 35.5033 123.927 35.4711 123.979 35.4196C124.024 35.3681 124.062 35.3102 124.082 35.2459C124.101 35.1816 124.12 35.1043 124.12 35.0336ZM124.333 36.7708C124.333 36.6743 124.32 36.5906 124.288 36.5198C124.255 36.4491 124.21 36.3847 124.153 36.3333C124.095 36.2818 124.017 36.2432 123.921 36.2174C123.824 36.1917 123.702 36.1788 123.554 36.1788H123.065V37.337H123.664C123.779 37.337 123.876 37.3241 123.953 37.2984C124.03 37.2726 124.101 37.2405 124.159 37.189C124.217 37.144 124.262 37.086 124.294 37.0153C124.32 36.9445 124.333 36.8609 124.333 36.7708Z" fill="white"/>
<path d="M132.87 37.6394C132.87 37.6973 132.87 37.7488 132.864 37.7938C132.857 37.8324 132.851 37.8646 132.838 37.8903C132.825 37.916 132.812 37.9353 132.799 37.9482C132.787 37.9611 132.767 37.9611 132.748 37.9611H130.708C130.638 37.9611 130.58 37.9418 130.535 37.8967C130.49 37.8581 130.464 37.7874 130.464 37.6973V34.1521C130.464 34.062 130.49 33.9913 130.535 33.9526C130.58 33.914 130.638 33.8883 130.708 33.8883H132.735C132.754 33.8883 132.774 33.8947 132.787 33.9012C132.799 33.9076 132.812 33.9269 132.825 33.9591C132.838 33.9913 132.844 34.017 132.851 34.062C132.857 34.1006 132.857 34.1521 132.857 34.2164C132.857 34.2744 132.857 34.3258 132.851 34.3644C132.844 34.403 132.838 34.4352 132.825 34.4609C132.812 34.4867 132.799 34.506 132.787 34.5188C132.774 34.5317 132.754 34.5381 132.735 34.5381H131.281V35.529H132.51C132.529 35.529 132.549 35.5354 132.561 35.5483C132.581 35.5612 132.587 35.5805 132.6 35.5998C132.613 35.6191 132.619 35.6577 132.626 35.6963C132.632 35.7349 132.632 35.7864 132.632 35.8443C132.632 35.9022 132.632 35.9536 132.626 35.9923C132.619 36.0309 132.613 36.063 132.6 36.0888C132.587 36.1145 132.574 36.1274 132.561 36.1402C132.549 36.1531 132.529 36.1531 132.51 36.1531H131.281V37.3177H132.748C132.767 37.3177 132.787 37.3241 132.799 37.337C132.812 37.3498 132.825 37.3691 132.838 37.3949C132.851 37.4206 132.857 37.4528 132.864 37.4914C132.87 37.53 132.87 37.5815 132.87 37.6394Z" fill="white"/>
<path d="M22.5 45C10.0951 45 0 34.9049 0 22.5C0 10.0951 10.0951 0 22.5 0C34.9049 0 45 10.0951 45 22.5C45 34.9049 34.9049 45 22.5 45ZM22.5 1.93023C11.1567 1.93023 1.93023 11.1567 1.93023 22.5C1.93023 33.8433 11.1567 43.0698 22.5 43.0698C33.8433 43.0698 43.0698 33.8433 43.0698 22.5C43.0698 11.1567 33.8369 1.93023 22.5 1.93023Z" fill="#D24020"/>
</g>
<defs>
<clipPath id="clip0">
<rect width="153.723" height="45" fill="white"/>
</clipPath>
</defs>
</svg>
